<svg xmlns="http://www.w3.org/2000/svg" viewBox="0 0 164 168">
<!-- SVG created with Arrow, by QuiverAI (https://quiver.ai) -->
  <style type="text/css">.cls-0 {fill:url(#SVGID_1_);}
.cls-1 {fill:#151719;}
.cls-2 {fill:#2A2D31;}
.cls-3 {fill:#F7F6F5;}
.cls-4 {fill:url(#SVGID_2_);}
.cls-5 {fill:#B8B7BC;}
.cls-6 {fill:#FFFFFF;}
.cls-7 {fill:#EAE8EB;}
.cls-8 {fill:none;stroke:#6C686B;stroke-width:0.25;stroke-miterlimit:10;}
.cls-9 {fill:none;stroke:#29282A;stroke-width:0.25;stroke-miterlimit:10;}
.cls-10 {fill:#CCCCCC;}
.cls-11 {fill:#444354;}
.cls-12 {fill:#1B1F23;}
.cls-13 {fill:#CCCCCC;stroke:#29282A;stroke-width:0.25;stroke-linecap:round;stroke-linejoin:round;stroke-miterlimit:10;}
.cls-14 {fill:#747578;}
.cls-15 {fill:#EEE9E2;}
.cls-16 {fill:#F9F5EE;}
.cls-17 {fill:#1C2023;}
.cls-18 {fill:#23282C;}
.cls-19 {fill:url(#SVGID_3_);}
.cls-20 {fill:url(#SVGID_4_);}
.cls-21 {fill:#475159;}
.cls-22 {fill:url(#SVGID_5_);}
.cls-23 {fill:#EDEBEA;}
.cls-24 {fill:#17191B;}
.cls-25 {fill:#121315;}
.cls-26 {fill:none;stroke:#161719;stroke-width:0.25;stroke-linecap:round;stroke-linejoin:round;stroke-miterlimit:10;}
.cls-27 {fill:#ACACAF;}
.cls-28 {fill:#BFBBBB;}
.cls-29 {fill:#878387;}
.cls-30 {fill:#CFCCCC;}
.cls-31 {fill:#FF985F;}
.cls-32 {fill:#DD6B3F;}
.cls-33 {fill:url(#SVGID_6_);}
.cls-34 {fill:#B5482C;}
.cls-35 {fill:#EC7D47;}
.cls-36 {fill:#FCBB8A;}
.cls-37 {fill:#CCA8AA;}
.cls-38 {fill:#AFAFB2;}
.cls-39 {fill:#F7F5F4;}
.cls-40 {fill:#DFDFD8;}
.cls-41 {fill:#C5C4CA;}
.cls-42 {fill:#DDDAD9;}
.cls-43 {fill:#A8AAAB;}
.cls-44 {fill:#FFF1E3;}
.cls-45 {opacity:0.3;fill:#FFE8DA;enable-background:new    ;}
.cls-46 {fill:#7A797D;}
.cls-47 {fill:#FEFDFF;}
.cls-48 {fill:#67666B;}
.cls-49 {fill:#474649;}
.cls-50 {fill:#38373A;}
.cls-51 {fill:#ECEEF0;}
.cls-52 {fill:url(#SVGID_7_);}</style>
  <linearGradient id="SVGID_1_" x1="146.8" x2="146.8" y1="98.27" y2="128.5" gradientTransform="matrix(1 0 0 -1 0 130)" gradientUnits="userSpaceOnUse">
    <stop stop-color="#1D1F23" offset="0"/>
    <stop stop-color="#393E44" offset="1"/>
  </linearGradient>
  <path class="cls-0" d="m132 13s1.1-1.4 2.2-1.5c1-0.1 24.1 2.5 24.8 3.1v37l-0.4 0.4-25-0.2v-38.8z"/>
  <path class="cls-1" d="m127.5 43.4c0.8 3 2.8 8.2 6 8.2h2.4c3.5 0 9.6-19.7 3.6-36l-1.5-2.2-2.9-1.9h-1.6l-1.4 0.8-2.6 1.7-2 29.4z"/>
  <path class="cls-2" d="m129.6 43.8c0.9 3.6 2.8 6.8 5.1 6.8s7.5-8.1 7.5-19.6-3.3-16.5-4.7-17.2l-2 0.7-4 0.5-1.9 28.8z"/>
  <path class="cls-3" d="m136.8 14c1.8 1.2 4.2 8.7 4.2 17 0 7.3-1.9 14-2.1 14l-13.6-1.5 2.4-30.9 9.1 1.4z"/>
  <linearGradient id="SVGID_2_" x1="133.4" x2="133.4" y1="45.46" y2="74.27" gradientTransform="matrix(1 0 0 -1 0 130)" gradientUnits="userSpaceOnUse">
    <stop stop-color="#BAB8BD" offset="0"/>
    <stop stop-color="#EEEEED" offset="1"/>
  </linearGradient>
  <path class="cls-4" d="m138.8 45-10.8-1.3c3.4-1.4 5.6-9 5.5-17.3-0.1-6.9-3.5-12.2-4.7-13.7l7.7 1.3c1.2 0.5 4 7.7 4 16.3 0.1 7.3-1.3 13.2-1.7 14.7z"/>
  <path class="cls-6" d="m133.4 26.2 6.6 0.8c-0.3-5.2-2.2-11.7-3-12.5l-3-0.5-0.3 1-0.3 11.2z"/>
  <path class="cls-7" d="m133.4 35.8 6.1 1.2 0.3-1.4-5.8-0.1-0.6 0.3z"/>
  <path class="cls-8" d="m138.6 45"/>
  <path class="cls-9" d="m134.7 50.6c-1.8 0-3.7-2.7-4.6-6.9"/>
  <path class="cls-10" d="m81.4 43.5-0.9-0.5 1.5-2.6 0.9 0.6z"/>
  <radialGradient id="SVGID_3_" cx="-56.2" cy="12.36" r="17.1" gradientTransform="matrix(-1.045 0 0 -.3377 77.1 160.3)" gradientUnits="userSpaceOnUse">
    <stop stop-color="#444156" offset="0"/>
    <stop stop-color="#444156" stop-opacity="0" offset="1"/>
  </radialGradient>
  <path class="cls-19" d="m7.2 152.8c3.2-2.5 24.8-4.8 49.8-4.8 25.8 0 44 1.5 44 3.5s-18.3 7-44.1 10.2c-27.5 0.5-53.3-6-49.7-8.9z"/>
  <radialGradient id="SVGID_4_" cx="83.91" cy="16.18" r="42.95" fx="84.02" fy="18.87" gradientTransform="matrix(1 0 0 -.2511 0 152.6)" gradientUnits="userSpaceOnUse">
    <stop stop-color="#444057" offset="0"/>
    <stop stop-color="#4E4E5F" stop-opacity="0" offset="1"/>
  </radialGradient>
  <path class="cls-20" d="m148.3 141.4c0.6 4-26.1 7.6-43.8 12.5-18.6 5.2-45.5 9.7-66 7.6-14.8-1.5-30.5-3.6-29.5-7.5 0.3-1.4 11.5-3.5 13.4-4.5l53.6-4.5c29-6.6 71.5-9.7 72.3-3.6z"/>
  <path class="cls-1" d="m12.8 147.5c1.2 1.9 2.5 4 5 4.5 1.4 1.3 2 1 5.9 1.3 1.6 0.2 4.9-0.7 5.8-1.5 0.7-0.3 0-3.3 0-3.3l-16.7-1zm59 4.6c0.7 2.1 1.3 4.6 7.7 5.8 7.6 1.5 9.5-0.4 10.3-1.4 1.7-2 4.2-6 4.6-10.5 0.1-5.3-4.8-17.5-10.9-16l-5 3.6-2.1 10.4-1.7 7.6-2.9 0.5zm53.9-13c0.8 2.5 1.2 4.8 2.8 5.4 1 0.4 6.2 1 7.2 1 3.2 0 5.9-2.8 6.8-10.5 0.1-3.9-0.5-15-6.1-13l-2.3 1.5-3.1 9.5-1 4.5-4.3 1.6z"/>
  <path class="cls-11" d="m94.3 147.9 35.3-9.3 9.8 6.4-44.9 11.5-7.7 2z"/>
  <path class="cls-12" d="m134.9 123.1c2.6-2.1 6.5-1.5 7.6 8.5l-2 7.4-2.6 3.6c-5.8 1.4-7.4-13.4-3-19.5z"/>
  <path class="cls-13" d="m76.1 151.8c0.9-1.7-0.2-11.3 3.9-17.8 1.6-2.6 3.6-6.4 8.6-6.9 7.3-0.1 7.4 11.4 6.9 16.5l-1.1 4.4"/>
  <path class="cls-14" d="m96.5 119.4-1.9 0.1-0.5 0.5-0.1 0.7 0.1 0.7 0.8 0.5 1-0.2 1.2-0.8 0.3-0.9z"/>
  <path class="cls-15" d="m34.2 107.7c-4.5 1.9-19.8 6.4-24 11.8-1.2 2.4-3.2 9.2-3.7 12.1-0.4 3 0.4 10.1 1 10.9l-0.9 1.9c-0.3 2.6 4.9 3.3 7.9 3.8 4.5 0.5 29.5 3 31.2 3.3 1.7 0.2 2.1 1.3 3.8 1.5 6.9 0.4 22.7-0.4 26.5-1 0.7-2 0.4-9.9 3-16 1.5-3.4 5-9 10-9 6 0 7 8.5 6.5 15.9l-1.1 5 35-9.4c1.5 0 1.5-1.6 2.6-7.5 1.6-9.8 4.5-12 7.1-11.6 3.4 0.7 4 7.2 3.9 14.7 2.6-2.7 3-11.5 1.6-21.6-0.1-2.3-5.6-9.5-6.6-10.4-1.1-0.5-2.6-2.2-4-3.7-1.9-2.4-5-6.4-8.3-7.5-4.2-1.9-8.2-2.8-11.1-3-13-1.3-30.6-2.8-51.6 1.5-6.5 1.2-16.9 8.1-28.8 18.3z"/>
  <path class="cls-7" d="m77.9 137.1c0-2.1 2.1-6.2 2.6-7.1l-5.4-2c-0.2-0.1-2.5 2.2-2.1 2 4.1 0.5 2.5 6.5 2.1 7.6l-3.6 3-1.9-2 2.4 6.4-2.1 2-18.9 1.5-4.9-3.5 2.4-1 0.6-0.5-2.6 0.5-2.5 0.5-5-0.5v0.6-0.6-0.9l3.6-0.6 7.5-9 15.8-2.4 6.1-1.1-21.4 3.5 1.4-1.4c-1.4-2-5.5-4.7-6-4.6l10-2.5 19-4c2.4-0.3 0.5 2-1.4 6l2 1 5.5 2-0.2 1-4 6.6 1-0.5zm-58.4-16.1 30.5 1.9 28.1-12.9c-12.2 3-18.1 6-28.1 11-0.9 0.7-29.6-0.6-30.5 0z"/>
  <path class="cls-16" d="m61 90.9 15-3c10.5-1.2 21.1-1.4 31-1l3.1 0.5-12.1 4.1-38.5 0.1 1.5-0.7zm-27.1 18.1-17.5 10-1.4-2.1 0.5-0.4c6.4-3.5 11.9-5.1 18.5-7.5h-0.1z"/>
  <path class="cls-2" d="m59 91.5c-5.5 2-18.9 11.9-24 16.4l51 1.1c2.4-0.4 3.1-1.1 4-2.4l8-15.1c-11.1-0.1-26.9-1-39 0z"/>
  <path class="cls-17" d="m35.1 108c3.9-3 14.8-12.1 23.9-16.4l39-0.1-7.4 14.1c-1.2 2.3-2.6 3.5-5.6 3.5-14.4 0.5-33.6-0.5-49.9-1.1z"/>
  <path class="cls-18" d="m68.3 92.5-4.8 11-23.4 3-0.1 0.5h18l27 1c3 0 3.9-1.1 5-2.1l7.1-13.9-28.8 0.5z"/>
  <linearGradient id="SVGID_5_" x1="55.51" x2="55.51" y1="71.3" y2="56.64" gradientTransform="matrix(1 0 0 -1 0 152)" gradientUnits="userSpaceOnUse">
    <stop stop-color="#4D5B64" offset="0"/>
    <stop stop-color="#3B4349" offset="1"/>
  </linearGradient>
  <path class="cls-22" d="m68 92.5-5 1c-2 0-17 10-19.1 12.5l-3.8 0.5-0.1 0.4h5l18.1-2.9 4.9-11.5z"/>
  <path class="cls-21" d="m69.8 93.1-4.4 11.3 1.6 0.6 4-11z"/>
  <path class="cls-21" d="m71.9 95.7-2.3 7.8 2.3-1 4-0.6c-1.5-1-2.8-4.9-0.9-5.9l4-0.5c4.6-0.4 4.6 2 4.4 5l-0.7 1.4c0.9 0 1.8-0.4 1.9-1 0.4-1.5 0-4.9-0.6-5.4-2.5-2.4-4-2.9-6-2.3l-0.4 1.3-5 0.9-0.7 0.3z"/>
  <polygon class="cls-21" points="88 93.6 94.7 93.6 93.9 96 92.5 94.9 91.6 96"/>
  <linearGradient id="SVGID_6_" x1="105.6" x2="105.6" y1="63.64" y2="52.42" gradientTransform="matrix(1 0 0 -1 0 152)" gradientUnits="userSpaceOnUse">
    <stop stop-color="#6D767C" offset="0"/>
    <stop stop-color="#3B4349" offset="1"/>
  </linearGradient>
  <path class="cls-33" d="m99.1 100.6 4.9-0.5 3.5-0.1c0.5 0 1.5 0.5 0-2.4l-1.4-1.6-3.4-0.6-1.7 1.5-2 3 0.1 0.7zm3.8-5.7 1.6-1.4 3.5-0.6 2.5-0.4h0.6l2 8.1-3.5 0.4c-0.1-1-0.2-4-2.5-4.9-1-0.5-3.1-1.1-4.2-0.7v-0.5z"/>
  <path class="cls-17" d="m92.9 110.9c1.1 1 13.1-1 14.1-1 0.5 0 2-1 2.6-1.4 13.8-2.9 23.3-3.9 23.3-5.5s-4-8.5-7.5-10.4c-4-2.1-14.9-4-21.4-1-4.4 1.9-10.9 14.8-11.1 19.3z"/>
  <path class="cls-18" d="m110.9 91.1c1.1 1.8 3.7 11.9 4.5 15.5h1.5c-0.9-6-3.5-13.6-4.4-15.6l-1.6 0.1zm2.1 0c1 1.5 3.6 9.9 4.5 14.8l0.5 0.1 0.5-0.5c-0.9-5-3.6-13.9-4.5-14.5l-1 0.1z"/>
  <linearGradient id="SVGID_7_" x1="121.2" x2="121.2" y1="63.63" y2="53.72" gradientTransform="matrix(1 0 0 -1 0 152)" gradientUnits="userSpaceOnUse">
    <stop stop-color="#6D767C" offset="0"/>
    <stop stop-color="#2C353B" offset="1"/>
  </linearGradient>
  <path class="cls-2" d="m115 92.4 3.5 9.1 7.5 1.5 1.4 0.6-3.4-10c-2.5-0.5-6.5-1.1-9-1.2z"/>
  <path class="cls-18" d="m122.6 92.5c0.9 1 3.5 8 4.4 11.9l0.6-0.4-3.2-10.9-1.8-0.6z"/>
  <path class="cls-21" d="m117.9 96.5 6.1 0.4 0.9 1h-7zm0.1 1.4h6.9l0.2 1.7s-3.2-0.5-6.1-0.2l-0.6-0.4-0.4-1.1z"/>
  <path class="cls-24" d="m9.1 142 1 0.6c0.9 0.9 1.8 0.8 2.9 0.4l2.9-1.5c-0.5-2.5-5.8-7.9-7.3-8.1-2.2-0.8-1 6 0.5 8.6zm40.6 2c0.4-0.6 2.8-4 4.7-4 1.5-0.5 11.6-2.9 13.6-1.4 1.1 0.4 2.5 6.4 2.6 7.4-0.1 1-11.5 1.6-14.6 1-1.6-0.4-5.6-2.5-6.3-3z"/>
  <path class="cls-25" d="m13.1 145 4-2.1 2.4-0.3 24.1 1.9 2.5 1 4 3.1-3.1 0.3-14-0.9-10.1-1-9.8-2zm1.4-15.5 2.6-3.5 28.5 2c1.3 0.5 4.8 3.5 4.8 4.1l-7.8 8.5-1.6 0.5-24.6-2.1-3.3-8.4 1.4-1.1z"/>
  <path class="cls-23" d="m18.4 135.4 19.7 1.6 0.4 6.9-20.1-2z"/>
  <path class="cls-30" d="m48 128 1-1 3 2.4v2.6z"/>
  <path class="cls-6" d="m14 131.5 11.5 2 18.5 1.1 4-0.2-0.5-0.4h-3.5l-18-0.9-12.1-1.6 0.2 0.5 10.9 1.5 18 1.1 5-0.2v-0.4zm0.5-1.4 10 0.9 0.5-0.5-10.6-1.5 0.1 1.1zm18.6 0.4 14.5 0.6-0.6-0.5-13.9-0.6v0.5zm-18.6-2 8.9 1.1h1.6l-8-1.6-2 0.4z"/>
  <path class="cls-6" d="m15.5 136 2.5 0.5v0.5l-2-0.5zm2.5 2.4v0.6l-1.5-0.4-0.1-0.5zm21-0.4h5.5l-0.5 0.5-4.4-0.1zm0 3h3.5l-0.5-0.1-3-0.3z"/>
  <path class="cls-26" d="m18 142.6-3 0.8-2.5 1.6m1 0 11.4 1.5 14.1 1c5.1 0.4 10.9 1.1 11 0.9m-40-25c-1.1 4.5 1.9 6.1 2.6 6.6l3 7.1 0.5 1.4 0.9 1h0.9l0.1-0.4"/>
  <path class="cls-27" d="m9 126c0.4 2.1 2.1 4 3.5 4.6 0.6 1.4 3.4 9 4.6 9l1.9 0.4v2.4l-2-0.5c-1.6-0.4-8.1-6.9-8.9-8l-1.1 0.1v-2.5l2-5.5z"/>
  <path class="cls-12" d="m15.6 124.9 30 2.1c1.9 0.6 5.5 4.9 5.9 5.5l-1.5 0.9v-0.5l-2.1-1.8-2.3-2.5-30.6-2.6 0.6-1.1z"/>
  <path class="cls-15" d="m18.6 120.9 33.4 1.6 5 1.5 1 0.5-12.4 2.5c-10.1-0.4-21-2-30.7-2-0.8-0.5 1.7-3.9 3.7-4.1z"/>
  <path class="cls-28" d="m93 124 3 4.4 1 10-0.1 7.7-1.8 1.3c1.9-5-0.1-20.9-4.6-21.4l-2.5-0.5 5-1.5z"/>
  <path class="cls-29" d="m95.6 111 2 8.4c0.5 4 1 6.7 0.5 19.6"/>
  <path class="cls-16" d="m44.6 126.6c-0.7-2.6 2.8-3.1 7.4-3.5l-3.9-0.5-11.5-0.6-18-1c2.8-2.5 10-5 11.4-6 3 0 14.9-4.5 22-5.4l23.6-0.2 1.4 0.6c-7.9 2.1-15 5-25 11l2 1.1c7.4-1.6 19.4-8.1 32.6-12.1l0.3 0.6c-0.8 2.4-18.8 6.5-32.8 11.9l2 1.5c-5.5 1.5-10.1 2.5-11.5 2.6z"/>
  <path class="cls-30" d="m92.1 108.5c2.5-7.6 7-16.9 12.3-18.6 5-1.9 11.7-2.5 18.7-0.5l4 1.5 3.3 2.5 5 5.5-3.4 1.5-3.9-5.4-4.6-2.9-9.4-1.7-8.2 0.6-3.9 2-3.4 2.6-4.1 7.8-2.5 5.7 0.1-0.6z"/>
  <path class="cls-5" d="m98.6 144.5-0.6-0.1v-1l31-7.9 1-1.5 0.6 0.5-0.5 1-0.7 1.1-30.8 7.9z"/>
  <path class="cls-4" d="m127.7 106 4.9-2.6c1 0.6 3.5 4 3 6v3.6c-3 3-4.6 8.4-6.5 15.6l-9.2 2.5-14.9 4.8c-2 0.6-6.5 3.1-6.5 4.7l21.5-5.5 9.6-2.7 0.4-0.4-0.4 2-0.6 1.4-8.9 2.2-22.1 6.4v0.6h0.4l30.5-8c0.7 0 1.1-0.7 1.6-1.6 0.9-2.6 1.5-8.9 3.1-12.4 1-2.6 3-5.6 6-5.6s3.5 4 4.5 5.6l1-4.6-0.7-5.1-1-2.3-2.3-1.5-5.1 0.9c-0.9 0 0.1-2-0.4-2.6l5.4-1.4-1-2.5-2.6-1.5-2.9-3-1.9 2.9 0.4 1-0.1 0.2z"/>
  <path class="cls-16" d="m80 120.5c4-2.5 10.6-3.5 15.4-4.6l1.5 2.7-0.4 0.4-2 0.4c-1 0.1-1 3.1 0.9 2.2l1.6-0.7 1 5.1v0.1c-2.1 1-2.6 0-4-1.2-0.4-0.5-2.4-0.9-3.1-0.9-2.9-0.6-8.3 1.5-9.9 4.6l-3-0.6 2-4c-1.4 2.1-1.4 2.6-2.9 3.6l-1.7-0.5c1.1-1.1 2.1-2.6 3.7-4.7 0.3-1.4 0.9-1.9 0.9-1.9zm56-5.5v-2.5l4-0.5 3 4v4l-2.4-3-1.6-0.5-2.5 0.5z"/>
  <path class="cls-26" d="m117 106.9c0.6 1.6 2.5 3.2 2.6 5.6 1.4 7-0.1 25.5 0.5 25.5"/>
  <path class="cls-31" d="m76 41 3 0.1 3 0.3c2.5 2.6 4.5 2.5 7.5 1.7 1.4 0 2.1 0.9 4.1 0.4 1.9-0.4 3.4-2.6 4.9-5.6 2.5-0.8 4-0.3 6 0.2 5 1.8 10.6 2.9 18 0.9h2.5l3.9 0.6 2.1-2.5 1.5-9-0.4-8.1-4-7.5h-1.1c-5.4-1.1-24.5-10.1-27.5-9.5-1.9 0.4-19.5 6.9-21.9 9-1 0.9-2.7 6.6-5.7 13-1 2 0.2 13.5 1.1 14.4l1 0.7 2 0.9z"/>
  <path class="cls-32" d="m74.4 40.5 3.7-1 3.4 0.5c1.1 1 1.9 2.5 8.5 0l9-2.4 7-0.6 8 1.5h8.4l3.2-0.9-1.1 1.4 1.1 0.4-1.6-0.3c-7.1 1.5-11.9-0.1-15-2.6l-6-0.1-4.5 1.2-1.9 3.3-2.6 2.1-3 0.6-2-1.1-2.5 0.5h-2.5l-2.1-1.9-7.5-0.6z"/>
  <linearGradient id="SVGID_8_" x1="99.49" x2="99.49" y1="92.79" y2="127.7" gradientTransform="matrix(1 0 0 -1 0 130)" gradientUnits="userSpaceOnUse">
    <stop stop-color="#FF8548" offset="0"/>
    <stop stop-color="#FFB986" offset="1"/>
  </linearGradient>
  <path d="m127.4 12.9c-7.8-2.3-23.8-10.4-26.8-9.9-1.7 0-5.1 1.6-6.6 2.6l-16 6.8c-1.4 1.7-2.5 6-5.1 11-1.9 2.6-1.3 8.6 0.5 11.6l2.5 0.1 2.7-2.6 2.4-2.5 4.5-4.5 9.5 1 8.1-2.5 4.5-2.1c8.3-3.5 1.9-8.4-2.6-12l-4.4-0.9c-3-1-6.6 0.6-15.6 4.1-3.1 1.5-2.5 4.4-3.9 5.4-3 4-3.1 5.5-6 6l2 1.5 1.4 1.6 2.5-1.1 4.1-4.5 0.9 0.5 2.9 2.5 3.6-0.4 1-1.1 1.6-3.5 2.5 5 4.4-0.5 2.4-1 1.5-4.1 1.2-0.9c0.4-2.1-4.5-8.4-7.1-8.1 4 1.6 5 11 4.6 12.6h0.5c10-2.9 6.9-6.6-0.1-12.4-1.9-1-4.4-1.5-6.4-1.7-4.6-0.4-15.7 4.5-16 7 0 0.5 3.4 3.7 3.8 4l5.6-0.9 1-0.9 0.4-3.1-3.4-0.6-7 2.1 10-2 2 5 0.6 2.9 0.5-4.3 4.9-0.7 0.4 7.1h0.6l-0.4-11.6 0.9 5.1 1-4v9.5h0.5c1.1-5-2-14.5-4-13.5 3.1 0.6 5.1 8.1 5 13 5.9-2.5 8-4.5 5-7.5l-5-5.1c-1.5-1-4.9-1.9-6.6-1.9-3.4-0.1-12.4 3.4-14.4 4.9l-1.4 1.6-0.2 1.6-2.4 2.5-3 4.9-2 0.5h-1.4l-1 0.5v2.9l1.8 7.2 1-0.5v-0.6l1.6-0.5 1.6-2v-4.9l4.3-6.6-4 5.9 1.1 1.1 5-6.5-2.5-4 3.5 4 0.5 0.5 6.5-1 0.5-0.6v-6.4c1.1 2 1.6 3.6 2.4 8l1.1 3 3.6-2 0.5-1.5v-4l-4-4.1 3.5 5.1h0.8l-0.3-4.6h0.3z" fill="url(#SVGID_8_)"/>
  <path class="cls-34" d="m78.4 26.6 0.7 0.3 5.9-6.4h0.4l-0.4 0.5-5 6.5 1 1.5 4.5-4 1.4 0.1-3 3.9 5.7-1.6 7.4-2.4-2-4-0.4-0.5-1.1 2.9-1 1.1-3.5 0.6-1-0.1-2.6-2.9-4.9 6.3-1-0.8-0.4 1.4 0.3 1.5-1 1v-4.9zm17.2 6.9c2-1.1 3-3.1 11.4-3l6.6 0.9 8.4-1.4c4.1-0.6 8.6-1.5 9-3.4l-1.6 3.9-3.3 2.9-3.1 1.2-4.4 0.8-3 0.1-2.6-0.6 0.1-0.9h-5.5c-3.6 0.6-7.6 0-12 1.4v-1.9zm33.5 1.1-4.1 1.9-3.4 1.5h2.5l-1.7 1h1.1l2-1.1-0.5 1-1 0.1 1.6 0.5 2.9-0.4c0.5-0.7 3-6 1.9-6.1l-1.3 1.6zm-54.7 1.3 0.5 0.1 0.7-1h1.8c-0.8 4 4.2 6 8 5.1l5.6-1.7-8.4 1.2-3.6-1.6-1.6-2 0.1-2.6-3.1 2.5z"/>
  <path class="cls-35" d="m75 39 3.6 0.4 1.5 2.7-1.1-1.2-1.4-0.9-3-0.5v0.5l-0.5-0.1z"/>
  <path class="cls-36" d="m74.1 31-1.5-4.1 0.9-2.4h1.6l2.9 0.5 5.5-7.4-2.5 7.4-4 1 0.5 0.5 2 1.6-0.5 2.4-1.5 1-2.5 2zm19.3-2.5 1.6-1.5 6-1.5 5-2.1 4-2.4c1.5-1.4-5.6 1-12 2.1l3.5-1.1v-3l-5.9 1 1.5 5 3.9-0.4-7.5 2.4-3.9 0.4-9.6 2.6 9.1-2.1 4.3 0.6zm1.1 0.5 3.5-0.5 4-1 8-3 5-0.5 10-1.5 6-1.5-0.4 5.5-2.5 1.5-14.1 3.4-7.5-0.9c-3.9-0.1-8.5 0.5-10.9 2l-1.6-1.1 0.5-2.4zm0.1 5.6 12.5-0.6 4.9-1.5c1 0.4 1.4 1.5-0.5 2.5l-2.5 1-8 0.1-2.5 0.5-2.9-0.5-1-1.5z"/>
  <path class="cls-37" d="m123.1 39c0.8-0.5 4.9 0 5.5 0.6-1.7 2.9-4.5 4.4-5.7 0l0.2-0.6z"/>
  <path class="cls-38" d="m122.4 39 0.7-0.1 0.3 1.6 1.1 1.6 1.6 0.4-1.1 0.6-1.4-1.2z"/>
  <path class="cls-39" d="m122.4 39h0.5c0 3 1.2 3.9 2.7 4.5h3.5c-3.7 1.1-7-0.6-6.7-4.5z"/>
  <path class="cls-40" d="m92 27.4c2 0.6 3 4.6 3.4 8-0.4-2.4-1.9-7.3-3.4-8zm-2 0.2c2 0.9 3.5 5.4 3.6 7.5-0.6-3-2.2-7-3.6-7.5zm-0.6 0.9c1.1 1 2.6 4.5 2.6 6-0.1-1.4-1.4-4.5-2.6-6zm0.7 1c0.9 2 1 4.4 0.9 8-0.5-4-0.4-4.5-2-8.5l1.1 0.5zm-10.6 3.1 4.5-1.2c1.6 0 2.6 4.6 2.5 6.6 0-1.5-0.9-6-2.5-6.6l-4.5 1.2z"/>
  <path class="cls-41" d="m77.1 32.4-0.5 1.6c-1.6 0.4-3.1 3.5-2.6 8.4l-0.1-0.3-0.9-0.5c0-4.1 1.6-8.6 4.1-9.2z"/>
  <path class="cls-42" d="m76.6 33.5-0.7 0.5c-1.4 1-2.3 5-1.8 7.6l-0.2 0.5c-0.9-3 0-8.1 2.7-8.6z"/>
  <path class="cls-1" d="m66 68.9c-1.6-0.3-4.6-1.9-5.4-2.9-1.1-2 0.4-8.4 2.5-18 1.4-5 2.3-7.6 3.9-8 1.1-0.4 4-1 7-1l6.6 3.1 1.9 2.3c0.9 1.6-1.5 19.1-3.5 24.1-1.5 2-7 2-8.9 1.5l-4.1-1.1z"/>
  <path class="cls-24" d="m69.4 40.5-2.8 0.9-1.1 1.6-3.5 16c-1 4.4-0.4 6.4 3.5 7.5l6.6 1.5c4.3 1.4 4.8 0.6 4.9-2l3.6-17-0.2-6c-1-1-3.4-2.1-6.4-2.4l-4.6-0.1z"/>
  <path class="cls-2" d="m66 43.4-3.5 16.7c-0.9 3.9-0.1 5 3.5 6l6.6 0.9c2.4 0.5 2.9-0.4 3.4-1.9l3.6-16.7-0.6-5.3-3.4-2.1-4.6-0.4-3 0.8-2 2z"/>
  <path class="cls-24" d="m65.6 46c-0.6 1-2.6 10.6-3.1 15.5-0.5 3.1 2.1 3.9 7.5 5 3.4 0.5 4.9 0.5 5.6-1.5l2.5-13.4c0.9-4.1-0.1-8-3.1-9-4.5-1.2-7.5 1-9.4 3.4z"/>
  <path class="cls-17" d="m65.9 46.5-2.8 14.9c-0.5 3 0.9 3.6 5.9 4.6 4 0.5 5.1 0.6 5.5-1l2.6-14.5c0.5-3.5-0.5-5.5-2.7-6-2.4-1-7.4-0.4-8.5 2z"/>
  <path class="cls-25" d="m65.5 50.5 10.4 1.5v1l-10.5-2zm-0.6 6.1 9.7 1.9-0.1 0.5-10-1.9z"/>
  <path class="cls-43" d="m71 40.5 1.6-0.1 0.4 1-2 0.2v0.4l-0.5-1z"/>
  <path class="cls-6" d="m71 40.5 2-0.1v0.6l-2 0.1z"/>
  <path class="cls-44" d="m79.6 32.9-0.6 0.6 0.5 3 0.9 0.9 2 0.1 3.1-0.6c0.5-2.5-1.1-6-1.9-5.3l-4 1.3z"/>
  <path class="cls-36" d="m84 34-4.5-0.1 1.5-1.4 2.5-0.5c1.5 0.5 1.1 1 0.5 2z"/>
  <path class="cls-6" d="m72.1 47.1c-1.1-0.2-3.1 1.3-2.2 3.3l2.6 0.5c0.6-1.3 1-3.3-0.4-3.8zm-1.1 0.8 0.9-0.4-0.4 1.5h0.5l-0.4 1.5-0.7-0.5 0.6-0.6-0.5-0.4v-1.1z"/>
  <path class="cls-6" d="m71.5 53.5c-2.4 0-2.6 1.9-2.5 3l2 1c1.1-1.5 0.9-3.1 0.5-4zm-1.1 0.6 0.6 0.9-1-0.5-0.4 0.5 1.4 0.5v1l-1.4-0.5-0.1-0.6 0.9-1.3z"/>
  <path class="cls-6" d="m68.5 60.4c-0.5 0.1-1.5 2.6-0.1 3.1l2.1-0.5c0.5-1 0.9-2.5-0.5-2.6h-1.5zm0.5 0.1 1.1 0.5h-1.1l-0.5 0.4 1.4 0.6-0.4 0.5-1.5-0.5 0.5-1.1 0.5-0.4z"/>
  <ellipse class="cls-6" transform="matrix(.1271 -.9919 .9919 .1271 -2.703 120)" cx="65.11" cy="60.36" rx="1" ry="0"/>
  <path class="cls-45" d="m80.1 36c-0.6 0.1-1.6-3.4 0.9-3.4l3.1-0.6c1.3 0 1.8 4.1 1.4 4.5l-3.1 0.5-2.3-1z"/>
  <path class="cls-34" d="m82.4 40.1 3.6-0.5 6-1v0.4l-8 1.6z"/>
  <path class="cls-35" d="m83 41c1.5 0.4 4 0.1 6-0.5l0.1 0.9 1.9 0.6 0.9-1c1.1 0 2.7 1.4 3.7 0.4-0.6 1-1.6 2.1-2.6 2.1l-2.5-1-1.5 0.5-1.9-0.5h-3.1l-1.4-0.9 0.4-0.6z"/>
  <path class="cls-46" d="m81 42.5 1-1.5 0.5 0.5-1 1.5-0.5-0.1v-0.4z"/>
  <path class="cls-47" d="m127.5 12.9c3 1.6 6.1 10.5 4.4 19.6-0.9 3.5-2.9 10.6-5.9 10.6l1 0.4c3.4-0.5 6.5-7.5 6.4-15.6-0.4-6.9-2.4-13.9-5.4-15.5l-0.5 0.5z"/>
  <path class="cls-48" d="m73.6 41c-0.6-4 0.4-7.5 3.5-8.5v0.5c-2.1 0.4-3.6 4-3.1 9h-0.4v-1z"/>
  <path class="cls-49" d="m74 40.4 1 0.1-0.6 2.5h-0.3z"/>
  <path class="cls-6" d="m67 69 1 1.5 1 0.1 1-1.2-0.5-1.5-2-0.3z"/>
  <path class="cls-50" d="m68 67.9 0.6 1.1h0.9l-0.5 1.6-1-1-0.4-0.6z"/>
  <path class="cls-42" d="m68 68.1c0 0.4 1 1.8 0 1.9l-0.6-1 0.6-1.1v0.2z"/>
  <path class="cls-13" d="m65.6 68.6-1.5 15.4c-0.6 2.6 2 2.5 2.4 2l2-2.1 3-13.9-0.5-1-0.5 0.4-0.5 1.6-5.4-0.4z"/>
  <path class="cls-48" d="m66 69 0.5 2.5 0.6-0.1-0.1-1.9-1-0.5z"/>
  <path class="cls-10" d="m69.4 71.1-0.9 2 1.5 1.4 1.4-1 0.1-2.4-1.1-0.6z"/>
  <path class="cls-49" d="m69 73.9 1.1 0.2-1.1 6.5-0.9 0.5 0.9-7.7z"/>
  <path class="cls-30" d="m67.5 83.5h1.5l-0.6 0.5-1 0.5z"/>
  <path class="cls-6" d="m67 69.1-2.4 15.4 0.4 1.9 0.6-0.4 2.4-15-1-1.9 0.5 1.9z"/>
  <path class="cls-49" d="m69 71 1.1-1 1 0.1-0.7 1.8-1-0.5z"/>
  <path class="cls-51" d="m69 72 0.9-0.9 0.1 0.9z"/>
  <linearGradient id="SVGID_9_" x1="86.55" x2="86.55" y1="24.84" y2="-4.54" gradientTransform="matrix(1 0 0 -1 0 152)" gradientUnits="userSpaceOnUse">
    <stop stop-color="#232325" offset="0"/>
    <stop stop-color="#121315" offset="1"/>
  </linearGradient>
  <path d="m79.5 143.1c0.5-6.2 3.6-13 7.9-13 3.2 0 6.6 4 6.6 10.8 0 6-2.9 15-7.4 15-4.7 0.1-7.6-6.9-7.1-12.8z" fill="url(#SVGID_9_)"/>
  <path class="cls-4" d="m7 144.5 1-1.5 1.1 1 7.3 1 10.2 2 21.4 3c6 1 27.1-2.5 28-2.6l-0.1 4.1c-6.9 0.6-20.9 1.6-27.3 0.9l-2.5-0.9-35.6-4-3-1.4-0.5-1.6z"/>
  <linearGradient id="SVGID_10_" x1="137.1" x2="137.1" y1="23.08" y2="5.437" gradientTransform="matrix(1 0 0 -1 0 152)" gradientUnits="userSpaceOnUse">
    <stop stop-color="#232325" offset="0"/>
    <stop stop-color="#121315" offset="1"/>
  </linearGradient>
  <path d="m133.5 132.9c0.5-4.5 2.1-8.9 4.4-8.9 2.1 0 4.1 3 4.1 8.1 0 3.5-1.1 12.3-4.6 10.8-2.9-0.4-4.4-5.3-3.9-10z" fill="url(#SVGID_10_)"/>
  <linearGradient id="SVGID_11_" x1="86.6" x2="86.6" y1="19.2" y2=".0835" gradientTransform="matrix(1 0 0 -1 0 152)" gradientUnits="userSpaceOnUse">
    <stop stop-color="#DADCDC" offset="0"/>
    <stop stop-color="#BDBABB" offset="1"/>
  </linearGradient>
  <ellipse cx="86.6" cy="143.5" rx="5.6" ry="10.6" clip-rule="evenodd" fill="url(#SVGID_11_)" fill-rule="evenodd" stroke="#737174" stroke-miterlimit="10" stroke-width=".164"/>
  <path class="cls-2" d="m86.9 134v6.6h0.5l1-5.6z"/>
  <path class="cls-5" d="m88 138 1-2.6 1.6 1.6-2.6 2.5zm-0.1 2.9v1.6l3.6-3.5-0.5-1-3.1 2.9zm0.2 3.1 2.9 0.6-1.5 4.4z"/>
  <path class="cls-2" d="m86.5 146 2.4 5-2.8 1.5-0.1-6.5z"/>
  <path class="cls-5" d="m84.4 135.4 1 4.6 0.6 0.1-0.5-5.6zm-1.5 1.6 0.2 3.4 1.4 0.6-0.5-1z"/>
  <path class="cls-2" d="m81.5 143 2.5 1-2.4 3.6-0.2-1.5zm2.5 4.1-1.6 2.4 0.6 1.6 1.4 1z"/>
  <linearGradient id="SVGID_12_" x1="137.5" x2="137.5" y1="23.08" y2="11.68" gradientTransform="matrix(1 0 0 -1 0 152)" gradientUnits="userSpaceOnUse">
    <stop stop-color="#DADCDC" offset="0"/>
    <stop stop-color="#BDBABB" offset="1"/>
  </linearGradient>
  <ellipse cx="137.5" cy="134" rx="3.5" ry="8" clip-rule="evenodd" fill="url(#SVGID_12_)" fill-rule="evenodd" stroke="#737174" stroke-miterlimit="10" stroke-width=".111"/>
  <path class="cls-2" d="m137.6 126-0.1 6.1 0.5-0.1 1.1-3-0.1-1.6z"/>
  <path class="cls-5" d="m139 130 1.1 0.4-1.1 2-0.9 0.2zm-1.1 4.6 2.1-0.2v1.6l-0.6 1.9z"/>
  <path class="cls-2" d="m137.5 136v5l1.5-1.4-0.5-2.6z"/>
  <path class="cls-5" d="m135 128 1.5 4h0.5l-0.9-5zm-0.4 2.5-0.1 1.5 1.5 0.5v-0.4zm-0.6 3.5 1.1 0.5v0.4l-1.1 0.7v-1.1z"/>
  <path class="cls-2" d="m134.4 137 0.7 2 1.5-3.5v-0.5l-0.6 0.5z"/>
  <path class="cls-25" d="m16 117-2.5 1c-3.1 1.9-3.9 6-1.1 9.1l2.2-1.7 0.9-0.4c-0.9-2.6-2.9-4.5 0.5-8z"/>
  <path class="cls-15" d="m14.5 117c-4 1.9-5 5.9-2.5 10.6l2.5-2.5 0.6-0.2c-1.1-1.9-1.7-5 0-7.9h-0.6z"/>
  <path class="cls-44" d="m9.9 122.1 0.6-1.1 1.5 0.1c0.4 0.3 0.5 0.5-0.4 0.3 0.4 0.1 0 4.7-0.6 3.6-1-0.9-1.4-1.9-1.1-2.9z"/>
  <path class="cls-6" d="m12 124.6v0.8l0.5 0.1 0.5-1.5-0.5-0.1zm0-2.5v0.9l0.6-0.9h-0.6zm0-1.1h1l0.1 0.6z"/>
  <path class="cls-25" d="m57 124.4 19-4.9c3.5-0.9 4-0.5 3 2-2.6 5-5 7.4-8.6 7.9-13.9 2.1-14.3 2.6-19.9-2.4l-1.5-0.4 8-2.2z"/>
  <path class="cls-4" d="m50 126.6 1.5 1.3c2.6 2.2 3.5 3.1 8.5 2.6l11-1.5c1.6-0.1 3.5-1.4 4.6-3l2-3-0.1-2.5-7.5 1-12 2.5-8 2.6z"/>
  <path class="cls-6" d="m51 127 1.6 0.6c2.4 2.3 3.4 2.4 6.5 2.4l11.9-1.6c2.5-0.4 5.1-4.3 6.5-7.8-3.4-0.1-17.9 3.4-26.5 6.4z"/>
  <path class="cls-15" d="m52 127.5 11.5-2.5 0.6 2.5-0.2 1.5-7.8 0.9-2.5-1.4-1.6-1zm14.1-3 8.4-2-2.9 5.5-2.5 0.6h-4.5l-1-1 0.3-1.6 0.1-0.9z"/>
  <path class="cls-44" d="m64.4 125.6 2.2-1.1 2-0.5h1.9l0.5 1-0.9 2.6-1 1h-4.5l-1.1-1 0.1-1.5 0.5-0.5h0.3z"/>
  <path class="cls-6" d="m64.6 126.1 0.4 1 0.4-1z"/>
  <path class="cls-45" d="m65 126v1.4h5l0.1-2.4-1.1-0.4-3 0.4z"/>
  <path class="cls-40" d="m74.1 123-1.5 3-1.6 1.6 0.5 0.4c0.9 0 2.9-2.6 4.5-5.5z"/>
  <path class="cls-21" d="m96 111.4c1.1 0.6 4.5 5.1 5.4 6.2 0.7 0.4 2.5-0.6 2.5-1.1-0.3-0.9-3-4.5-4-5.5l-3.9 0.4z"/>
  <path class="cls-14" d="m97 120-2.5 1 2.4-0.5 0.1-0.5z"/>
  <path class="cls-25" d="m93 110.5 1-4c1-3 6-12 10-14.6 3-1.9 13-2.9 20.6 0.1 3.4 1 7.4 7 8.4 10 0.4 1-0.6 1.9-11.4 4l-12.2 2.4-1.4 1.2c-0.9 0.9-2.5 0.8-10.4 1.4l-4.1 0.5-0.5-0.4v-0.6z"/>
  <path class="cls-18" d="m96 109 1.1-6.5 3.8-5.9 2.7-3.1 2-1 4.4-1 1-0.5c2.4 4 4 12.5 4.5 15.6h-1.4l-7.6 1.4-5.9 0.6-4.6 0.4z"/>
  <path class="cls-15" d="m97.5 108.9 11-0.9 1.5-0.6c1.1-1.8-1-3.8-4.9-4.4-5.1-0.5-6-1-7.1 2l-0.5 2v1.9z"/>
  <path class="cls-42" d="m97.6 107.5 12.4-1v0.5l-1.4 1-11.1 1z"/>
  <path class="cls-34" d="m98 37.1c1.9-1.1 7.4-1.7 11-0.6 5.9 1.5 11 2.1 14 1.5l2.6-0.4-0.6 1.4-4 0.9c-4.6 0.6-9.5 0-13-0.9-3-0.6-5.5-2.4-10-1.1v-0.8z"/>
  <linearGradient id="SVGID_13_" x1="143.1" x2="141" y1="39.47" y2="35.71" gradientTransform="matrix(1 0 0 -1 0 152)" gradientUnits="userSpaceOnUse">
    <stop stop-color="#8B171A" offset="0"/>
    <stop stop-color="#580C0D" offset="1"/>
  </linearGradient>
  <path d="m141 105 2.5 1.6 1.5 2.9-0.5 3-0.5-0.5-0.5-1.4-1.6-1.2c-0.9-1.5-1.5-4.9-0.9-4.4z" fill="url(#SVGID_13_)"/>
  <linearGradient id="SVGID_14_" x1="8.2" x2="10" y1="14.65" y2="14.65" gradientTransform="matrix(1 0 0 -1 0 152)" gradientUnits="userSpaceOnUse">
    <stop stop-color="#D5CEC9" offset="0"/>
    <stop stop-color="#fff" offset="1"/>
  </linearGradient>
  <path d="m8.6 135.6 1-0.2 0.5 1.6-0.5 2c-1.2 0-2-2.4-1-3.4z" fill="url(#SVGID_14_)"/>
  <circle class="cls-6" cx="9.1" cy="136.5" r=".1"/>
  <linearGradient id="SVGID_15_" x1="8.864" x2="10.18" y1="16" y2="12.56" gradientTransform="matrix(1 0 0 -1 0 152)" gradientUnits="userSpaceOnUse">
    <stop stop-color="#AA9B94" offset="0"/>
    <stop stop-color="#CBC3BA" offset="1"/>
  </linearGradient>
  <path d="m8.5 136c-0.1 1.4 0 3 1.1 3.9l0.5 0.1 0.4-0.4c0-0.6 0.5-2.6-0.4-4.2l-1-0.4-0.6 1z" fill="url(#SVGID_15_)"/>
  <path class="cls-6" d="m9 135.6 0.1 0.4h0.4l0.1-0.5z"/>
  <circle class="cls-6" cx="9.5" cy="136.5" r=".1"/>
  <circle class="cls-6" cx="9" cy="138" r=".1"/>
  <circle class="cls-6" cx="9.6" cy="137.6" r=".1"/>
  <path class="cls-6" d="m9 138.9h0.5l-0.5-0.4v0.4z"/>
  <path class="cls-2" d="m54.6 127.5 4-1 1.4 1.5-3.1 1-1.9-1z"/>
  <path class="cls-42" d="m61.4 126h1l1 2.4-3.5 0.6 0.6-1v-1.4l-0.5-0.7z"/>
  <circle class="cls-6" cx="56.9" cy="127.6" r=".1"/>
  <circle class="cls-6" cx="57" cy="128.9" r=".1"/>
  <ellipse cx="60.6" cy="127.7" rx=".2" ry=".3" fill="#fff"/>
  <linearGradient id="SVGID_16_" x1="60.62" x2="64.5" y1="4.079" y2="9.485" gradientTransform="matrix(1 0 0 -1 0 152)" gradientUnits="userSpaceOnUse">
    <stop stop-color="#B3ACA6" offset="0"/>
    <stop stop-color="#CDC6C1" offset="1"/>
  </linearGradient>
  <path d="m60 142.9c0-1.5 1.1-2.9 2.5-2.9s2.9 1.4 2.9 3-1.4 2.6-2.9 2.6c-1.4-0.1-2.4-1.2-2.5-2.7z" fill="url(#SVGID_16_)"/>
  <circle class="cls-2" cx="62.6" cy="143.1" r="2"/>
  <path class="cls-45" d="m60.9 141.9 0.6-0.9h2.1l0.8 1.1-1.9-0.1-1.6-0.1z"/>
  <path class="cls-6" d="m61 143v-1h1l1 1h-1.1v0.5z"/>
  <circle class="cls-6" cx="62" cy="142" r=".1"/>
  <path class="cls-6" d="m62 143.6 1-0.2h0.6 0.5l-0.1 0.6-1.5 0.1-0.5-0.6"/>
  <circle class="cls-6" cx="63" cy="142" r=".1"/>
  <path class="cls-32" d="m96.6 25 5.3-0.5-0.4-0.4-0.4-6h-5.6l0.1 1.9z"/>
  <path class="cls-6" d="m25.1 130.6c-0.1-1.6 0.9-2.7 3.8-2.7 2.1 0 4.1 0.7 4.1 2.7 0 1.4-1.4 3-4 3-2-0.1-3.9-0.6-3.9-3z"/>
  <path class="cls-2" d="m25.4 130.6c-0.4-1.6 1.1-2.6 3.2-2.6 1.8 0 4 1 4 2.4 0 1.6-1.6 3-3.6 3s-3.6-0.4-3.6-2.8z"/>
  <path class="cls-6" d="m27.1 128.6c3-1.5 4.9 0 4.9 1.8-0.4 1.6-2 2.6-3.4 2.6-2.6 0-3-2.6-1.5-4.4z"/>
  <path class="cls-2" d="m27.1 130c-0.5-1.1 0.9-1.6 1.5-1.6 1 0.6 1 1 2 0.6l0.5 0.4-1.1 1c-1 0.6-2.1 0.5-2.9-0.4zm1.5 1 1-0.4 0.4 2.4-1 0.1c-1.6 0.3-3.1-1.5-0.4-2.1z"/>
  <circle class="cls-6" cx="26.9" cy="130" r=".1"/>
  <circle class="cls-6" cx="30" cy="132.6" r=".1"/>
  <path class="cls-16" d="m16.9 120.6 17.2-11.1-18 9.1-1.6 4.4z"/>
  <path class="cls-4" d="m7.5 144.1 1.6 1.5 4.8 1 7.7 0.9 17 1.5 9.9 1.5h8.5l12.6-1 5.3-0.9 1-1.6-14.9 1.6-11.9 0.9-16.6-1.1-16.5-1.5-6.5-1.4-2-1.5"/>
  <path class="cls-42" d="m7 143 1 1 2.9 1.4 6.1 0.6 12.6 1.6 18.4 2h7.1l17.9-1.6-0.1 0.6-10.9 1.4-14 0.5-14.9-1.5-16.1-1-8-1.5-2-1.4v-2.1"/>
  <path class="cls-41" d="m85 140.6 1-0.5 0.9 0.5 0.1 3.4-0.5 0.4h-1.1l-0.9-1.4z"/>
  <path class="cls-6" d="m85 142h1v2h-1l-0.1-1 0.1-1z"/>
  <circle class="cls-6" cx="86.1" cy="141.1" r=".1"/>
  <circle class="cls-6" cx="86" cy="142.5" r=".1"/>
  <circle class="cls-6" cx="87" cy="141.5" r=".1"/>
  <circle class="cls-6" cx="86.5" cy="142.5" r=".1"/>
  <linearGradient id="SVGID_17_" x1="130.1" x2="134.7" y1="38.38" y2="38.38" gradientTransform="matrix(1 0 0 -1 0 152)" gradientUnits="userSpaceOnUse">
    <stop stop-color="#787276" offset="0"/>
    <stop stop-color="#959093" offset="1"/>
  </linearGradient>
  <path d="m133.6 107.6-2.7-0.7c-1.3 1.1-1.5 4.6 1 5 1.6-0.4 3.6-2.5 1.7-4.3z" clip-rule="evenodd" fill="url(#SVGID_17_)" fill-rule="evenodd"/>
  <path class="cls-5" d="m130 108.9 5-0.9-1 1-3.6 1z"/>
  <path class="cls-6" d="m130.6 110 0.9 1 2.5-1-2.4 1-1-0.4v-0.6z"/>
  <path class="cls-41" d="m114.1 114 4.9-1v1.4l-3.5 1.7z"/>
  <linearGradient id="SVGID_18_" x1="114.2" x2="119.1" y1="36.87" y2="36.87" gradientTransform="matrix(1 0 0 -1 0 152)" gradientUnits="userSpaceOnUse">
    <stop stop-color="#787276" offset="0"/>
    <stop stop-color="#959093" offset="1"/>
  </linearGradient>
  <path d="m115.9 110.9c-2.3 2.1-2.3 5.1 0.7 5.6 1 0 3.4-2.5 2.5-4l-1.6-1.6c-0.4-0.4-1.4-0.4-1.6 0.1" clip-rule="evenodd" fill="url(#SVGID_18_)" fill-rule="evenodd"/>
  <path class="cls-6" d="m114.1 114 5-1.5v1.1l-4.7 1.4z"/>
  <path class="cls-6" d="m119 114.4-3.6 0.6h-0.9c0.6 0.9 3.1 0.9 4.5-0.6z"/>
  <path class="cls-26" d="m95.6 111.4c-0.2 3 1.5 6 2 12.6 0.5 4 0 12 0 14.6m21.9-26 11.5-2.6"/>
  <path class="cls-9" d="m135.6 107.4v3.6c-0.1 1.6 0.5 4 0.4 7.6"/>
  <path class="cls-15" d="M 13"/>
  144.5 L 16,143 L 18,142.5 V 143 L 17.1,143 L 14.5,144.5 Z&quot;/&gt;
  <path class="cls-26" d="m86.6 108.6c0 1.5 0.5 4.5-1 5.8l-9.7 3.1-1.3 1.5"/>
  <path class="cls-29" d="m119 112.1-15 4.4"/>
  <path class="cls-9" d="m128.6 10.9 3.9 1.6"/>
  <linearGradient id="SVGID_19_" x1="86" x2="89.1" y1="6.271" y2="6.271" gradientTransform="matrix(1 0 0 -1 0 152)" gradientUnits="userSpaceOnUse">
    <stop stop-color="#C0BABB" offset="0"/>
    <stop stop-color="#928C8D" offset="1"/>
  </linearGradient>
  <path d="m86 145.2h1l2.1 5.8-2.1 1.2-1-0.2" clip-rule="evenodd" fill="url(#SVGID_19_)" fill-rule="evenodd"/>
</svg>