<svg xmlns="http://www.w3.org/2000/svg" viewBox="15 0 260.8 99">
<!-- SVG created with Arrow, by QuiverAI (https://quiver.ai) -->
  <style type="text/css">.cls-0 {fill:url(#XMLID_774_);}
.cls-1 {fill:#0A0B0D;}
.cls-2 {fill:#202326;}
.cls-3 {fill:#FFCE0E;}
.cls-4 {fill:#CFAF15;}
.cls-5 {fill:#141A1E;}
.cls-6 {fill:#FFE069;}
.cls-7 {fill:#FFFFFF;}
.cls-8 {fill:#4E585D;}
.cls-9 {opacity:0.4;fill:#636A71;}
.cls-10 {fill:none;stroke:#BE8F12;stroke-width:0.25;stroke-miterlimit:10;}
.cls-11 {fill:#303334;}
.cls-12 {fill:#DEDEDE;stroke:#3A3B3A;stroke-width:0.25;stroke-linecap:square;stroke-linejoin:round;stroke-miterlimit:10;}
.cls-13 {fill:#FFDC15;}
.cls-14 {fill:#CCAD14;}
.cls-15 {fill:#FCBF0D;}
.cls-16 {fill:#16191B;}
.cls-17 {fill:#424B4F;}
.cls-18 {fill:#DBE1E3;}
.cls-19 {fill:#D3AA12;}
.cls-20 {fill:#F4DF6E;}
.cls-21 {fill:#CFCECD;}
.cls-22 {fill:#FD3C21;}
.cls-23 {fill:#CA1102;}
.cls-24 {fill:#AF0F06;}
.cls-25 {fill:#FE5443;}
.cls-26 {fill:none;stroke:#671005;stroke-width:0.25;stroke-miterlimit:10;}
.cls-27 {fill:#820806;}
.cls-28 {fill:#FFF086;}
.cls-29 {fill:#FFBC0A;}
.cls-30 {fill:#DED678;}
.cls-31 {fill:#EAEBEB;stroke:#3A3B3A;stroke-width:0.25;stroke-linecap:square;stroke-linejoin:round;stroke-miterlimit:10;}
.cls-32 {fill:#FFEA71;}
.cls-33 {fill:#FEC914;}</style>
  <linearGradient id="SVGID_2_" x1="66.9" x2="66.9" y1="99.54" y2="78.09" gradientUnits="userSpaceOnUse">
    <stop stop-color="#151224" stop-opacity="0" offset="0"/>
    <stop stop-color="#151224" stop-opacity=".7" offset="1"/>
  </linearGradient>
  <path d="m132 80c-13.1-0.9-27.5 1.8-31.7 2-5.3 0.3-40.2-1.4-49.3-2s-29.8 1-31 3-0.9 5.4 3.6 7c4.4 1.5 29.2 4.8 45 4.8 18.4 0.1 46.4-4.8 48.4-4.8l32-6-17-4z" fill="url(#SVGID_2_)"/>
  <path class="cls-1" d="m29.6 74.7c0.4 4.3 4 9.2 10.4 9.1 6.3 0 9-3.9 9-4.8l-19.4-4.3z"/>
  <path class="cls-1" d="m86.3 80.6c0.4 3.2 4.4 9.3 11.7 9.3 4 0.1 6.5-0.9 6.5-0.9v-12l-18.2 3.6z"/>
  <path class="cls-1" d="m114 76.5c0.1 2.9 2 8.8 10.8 8.5h2.2l2-8-15-0.5z"/>
  <path class="cls-1" d="m95.4 58.9 11.6-5.9 8 2v19h-7s-11.9-6.9-12.6-15.1z"/>
  <path d="m158.9 14.9c-2.6-3.9-5.3-5.8-9.9-6.9-12.3-2.5-36-5-56.5-2.9-16.5 1.6-25.9 10.8-37.5 20.3-3 2.6-6.7 5.2-9 6.2-8.9 3.3-11 5.2-16.4 8.9-3 1.6-5.7 5.5-6.6 7.5-1.5 4.7-3.8 8-3.4 14.7l1.4 8.2-0.5 1.1c-0.5 3.2 0.9 3.9 2.5 4.5 9.2 3.1 30.7 4.1 40 4.5 1 0.2 2.1 1.1 5.9 1.3 5.3 0.1 20.4-0.2 22.1-0.4 1.8-0.3 2-4.9 2-7.1 0-9.8 3.8-20.8 13.9-21.3h22.1l-11 23.5 22-3 18-45 0.9-14.1z" clip-rule="evenodd" fill="#FFDA0E" fill-rule="evenodd" stop-color="#ffd80e"/>
  <path class="cls-4" d="m53 30.7c0.4 0.8 16.1-10.7 26-19.7-6 1-18.6 12-23 16l-3 3.7z"/>
  <path class="cls-5" d="m53 31.6 2 0.5 42 1.4c6.4 0.2 10-0.5 11-2.5 0.8-1.1 9.3-14.9 13-19 7-6.5 9-6 21-6-5-1-15.7-1.1-19 1.3l-2.7 3.3c-6.3 0-27.8-1.6-40.3-0.2-5 1.6-19.6 12.6-27 21.2z"/>
  <path d="m82.3 26.6 2.1-5.7 5.6-9.4-5 0.3c-6 0.7-21.1 11.9-24.9 18.1l17.3-3.3h4.9zm26.6-4.5c0.9-0.1 1.1-9.6 1.6-9.6l-8.5-0.4c-1.5 0.5-1.3 12.3-1.9 12.3l-9.1 1.5c1.5-6 5-14.5 5-14.5l-3 0.1-4 8.5-3 9 12.7 3.5 7.3-0.4 3.3-1.5 8.7-13.5 2.5-5.7h0.5l-10.3 17.1-2.6 3s-2.1 1.4-4.1 1.4c-5 0-30-0.4-45.8-1 6.3-2.4 15.4-5.4 24.1-5.3z" fill="#23282B"/>
  <path class="cls-6" d="m79 10c5.1-2 10.3-4.1 18.5-4.9 12.5-1.1 21.6-1.4 39.5-0.1-15-1-33.4-1-41 0.4-6.5 0.5-13 2.6-17 4.6z"/>
  <path class="cls-7" d="m32.2 47c1.2-4.9 7.8-8.9 13.3-12-5.5 2-11.5 5.4-15.5 9l2.2 3z"/>
  <path class="cls-8" d="m64.1 29.4 2.9-4.4c5.3-3.6 13.5-11 16-11.4l4-1.2 3-0.5c-0.3-0.3-1.9-0.5-5-0.1-5 0.6-19 10.2-23.9 18.1l3-0.5zm27.9-3.5c4.5-0.9 6-0.9 6-1.9 0.1-1-1.2-2.5-1.4-5 0-3 0.8-3.5-0.6-3.5-1.4 0.5-4 9-4 10.4zm8.1-11c0.2-0.9 0.6-2.4 0.9-2.8l9 0.6-1.1 9.4c-1.3 0.4-0.8-6.2-2.9-6.7l-5.9-0.5z"/>
  <path class="cls-9" d="m78 11c-7 3-19.6 13.5-23 18.9l3.6 0.1 5.8-5.5 13.1-9.5 8-3 1.5-0.6-9-0.4z"/>
  <path class="cls-10" d="m37 45.9c3 0.6 29 2.1 31 2 3 0.1 19.4-9.9 25.6-11.9"/>
  <path class="cls-11" d="m92.5 42.9 1.1 2.6 23.8-6.1-0.4-3.4c-0.6 0-19.6 5-24.5 6.9z"/>
  <path class="cls-4" d="m64.1 77.5 4.9-0.6-6.6-4.9h-5.4l7.1 5.5zm15.4-10.9c3.5-1.1 6.5-5.1 6.5-5.7l-33 5v5.5h6.4c6.1-2.5 18.7-4.5 20.1-4.8z"/>
  <path class="cls-19" d="m95.4 58.5-4.9-4-2.5 1.4-10.6 2 7.6-2.9-22 5-8.7 3.4-14.3-1.4-10.4-1.5-2.6-3.5-3-2-1-2.6-1 1.6-2.5 7.8 1.5 9.1 0.4 0.5-0.4-11.4 0.5-4 0.6 3 3.9 2.8 2 2.2-0.1 4-1.9 3.4-1 3 27 3.1 18 0.5 20.5-0.5-1.1 0.9-23.4 1.6 17.6 0.4 7.4-0.5 1-1.9 1-9.5c0.6-2.5 1.6-6.1 3-9.5l-0.6-0.5z"/>
  <path class="cls-20" d="m86 58-31.9 7-14.1-1.1-10.4-1.9-3.6-3-2-2-1-2.6-1.5 1.6 0.5 3 4 3 2 2 0.1 3.9 24.4-2 32-6.4"/>
  <path class="cls-7" d="m67 47 2-0.5c2.6-2.6 16.6-7.5 21.5-10-3.5-0.1-20.5 6.9-23.5 10.5z"/>
  <path class="cls-21" d="m84 62c-1 1.9-5.4 3.5-7.9 4.5l5.9-0.5 2-2.1v-1.9z"/>
  <path class="cls-13" d="m33 47 4-2c2-3 10.6-9.9 15-12-4.6 0.4-18 9-19 14z"/>
  <path class="cls-14" d="m45.5 35c-5.5 2-8.4 3.9-12.5 7-2-0.5-4 1-5.9 2l6.9-4 11.5-5z"/>
  <path class="cls-15" d="m102 35c-6.6 2-16.6 4.4-28 12 9.6-5 18.4-7 28-9v-3z"/>
  <path class="cls-13" d="m94 36 8-1v3l-15.4 4 7.4-3"/>
  <path class="cls-15" d="m106 39-2 1 13.4-3.1v2.1l-22.4 4-1-3z"/>
  <path class="cls-7" d="m90.5 48h-2.5l-5 8.4 2-0.5 5.5-4.5"/>
  <path class="cls-16" d="m29.6 50.5 29.4 2 35.5-7 0.5 0.4c-2 6-5.9 9.8-9 10.6l-13.4 1.5h-6.1l-12 5-14.5-1-9-1.5-2-2.5-2-1-3-2.1 5-6.9"/>
  <path d="m28 55.9 16 2.1 19 0.5 2-0.5-22-1-14-2-1 0.9z" fill="#1D1D1B"/>
  <path class="cls-5" d="m29 54 14 1.9 21.1 0.7-1.5-1.6-18.6-1-14.4-1.5-0.6 1.5z"/>
  <path class="cls-2" d="m30 52 13 1.4 18 0.6 2-0.5-19-1.6-14.4-1 0.4 1.1z"/>
  <path class="cls-1" d="m28 57 15 2.5 17 0.4-5.4 2.1-13.6-1-10-1.1-1.5-2"/>
  <path d="m73.5 29.9-7.5 1.1 10.5 1h5.5c0-1-3-2-8.5-2.1z" fill="#1C2021"/>
  <path d="m82 28-1 2.9 12.6 1.1-5.1-1.6-6.5-2.4z" fill="#394144"/>
  <path class="cls-7" d="m63 53c8-2 21-5 31.5-7 0.9 0.9-4 8.4-9.5 9.9l-12.5 1.5-3.5 0.1c-2.2-0.5-6.5-3.4-6-4.5z"/>
  <path class="cls-18" d="m66 53.5 21-3.5-4.9 6.4-10.1 0.6h-3l-3-2"/>
  <path class="cls-7" d="m77.5 51.4-3.5 2.5 4 1.1h4.4l1.6-2.6-0.4-1.9"/>
  <path class="cls-18" d="m66 54 6-1-1 2.9-4-0.5"/>
  <path d="m68 56 4-0.1 1.2-2.1 3.8 0.1-0.3 1.1 2.8 1-10.5 1-2-1.6 1-1.4" fill="none" stroke="#999" stroke-linecap="round" stroke-linejoin="round" stroke-miterlimit="10" stroke-width=".1"/>
  <path class="cls-6" d="m87 49 5-1-2.5 2.9-2.5-0.9"/>
  <path class="cls-7" d="m28 43.9c-1 1.1 0 6 1 7l-2 4.1c-1.4-0.1-3.1-3-3-5 0.6-3.1 3-6.1 4-6.1z"/>
  <path d="m28 43.9c-1 1.1 0 5.6 1 7l-1.4 1.6c-2.2-0.5-3-3.1-2.6-4.5 0.6-1.6 2-3.9 3-4.1z" fill="#fffdfa"/>
  <path class="cls-2" d="m25 50.4c0 2 2 3.5 2.6 3.6l-0.6 1c-1-0.4-2-2-2-4v-0.6z"/>
  <path class="cls-21" d="m22 64 2 1.5 1 2.5-2 1-1-1.5"/>
  <path class="cls-7" d="m78 51.9 4-0.9c1 0 2 1.5 1 2-1.4-1.1-4-0.6-5 0-2 0-1-1.1 0-1.1z"/>
  <path class="cls-7" d="m77.5 52.5c-1.9 0.5-0.9 2.5 1.5 2.4l3-0.5c0 1-3 1.6-5.4 0.6-2.2-1 0-3.1 0.9-2.5z"/>
  <path class="cls-9" d="m70 53.5 1 1.5h-2l0.6 1-2.6-1 0.6-1.1 1.4 0.1"/>
  <path class="cls-9" d="m70.5 53.9 5.5-0.4-1 1.5h-5"/>
  <path class="cls-9" d="m71 57v-1.1l6-0.3v1.4"/>
  <path class="cls-1" d="m63 70.9c3-1 16-4 19.6-3.4 1 1.6 1.4 8.4 0.4 9.4l-9.4 0.1c-2.6 0-5.6-2.1-10.6-6.1z"/>
  <path class="cls-5" d="m55 71.5c2 0.5 8 4.5 9 6-0.4 0.9-2 0.9-7 0.5-9-0.5-26-2-30.5-3.6-0.9-0.5 0-3.4 1.5-6.4l3 0.5v2l24 1z"/>
  <path class="cls-1" d="m24 69.9c1.6 0 1.6-1.4 2-4l-4-4.8c-2-0.2 1 8.9 2 8.8z"/>
  <path d="m22.1 64c0.9 0.9 1.9 1.5 1.9 3h-1l-1-2.6" fill="#0A0B0D"/>
  <ellipse transform="matrix(.0799 -.9968 .9968 .0799 -25.87 118.3)" cx="52.3" cy="73.6" rx=".7" ry="16.4" fill="#3A3B3A"/>
  <path class="cls-16" d="m28 43.9 3-2.5c-1.4 1-3 2.5-3 4.6"/>
  <ellipse cx="42.3" cy="56.6" rx="3" ry="4.4" fill="#2c2b2a"/>
  <path d="m42.9 52.6c-1.5-0.2-2.9 1.4-2.9 3.4s1 4.6 2.9 4.6c1.7 0.3 3.1-1.6 2.7-4.6 0.4-2-1-3.4-2.7-3.4z" fill="#fff"/>
  <path d="m43.6 53 0.4 0.5-0.4 1.9-1 0.2 0.3-2.6-1 0.5-0.9 1.5v2.4l1 3.1h1v-4.5h1v4l1.5-1.1v-4l-0.9-1.4" fill="#3d3938"/>
  <polygon class="cls-21" points="31 63 31 70.5 53 72.9 53.5 65.4"/>
  实体经济(name=’DS4ʹ’&quot; fill=palegoldenrodURLKey，.address '=', y=&quot;+24 +&quot;/&quot;;
  <linearGradient id="XMLID_775_" x1="137.9" x2="137.9" y1="99.54" y2="78.09" gradientUnits="userSpaceOnUse">
    <stop stop-color="#151224" stop-opacity="0" offset="0"/>
    <stop stop-color="#151224" stop-opacity=".7" offset="1"/>
  </linearGradient>
  <path d="m203 75h-33.2-50.8s-25 5-22 13c1 3 21 11.9 57 11.9 21.3 0.5 55-6.9 64-9.9l17-7 6-7-38-1z" fill="url(#XMLID_775_)"/>
  <path d="m92.6 67c1-4 5-11.1 11.8-12.1l9.6-0.4c-5 8.5-5.4 20-5.4 20l-17.6 3 1.6-10.5z" fill="#0c0d0f"/>
  <path d="m104.6 59a9.4 13.5 0 0 0-9.5 10.68 9.4 13.5 0 0 0 4.05 13.46 9.4 13.5 0 0 0 13.31-7.28 9.4 13.5 0 0 0-4.06-15.46" fill="#16181A"/>
  <path d="m105 62c-3.4 0-8 4.5-8 11.5 0 6.9 3.5 11.4 7 11.4 4.1 0 7-4.5 7-11 0-6.4-2-11.9-6-11.9z" fill="#B7BABB"/>
  <path d="m105 63c-3 0-7 4.4-7 10.5 0 6.5 3.5 10.5 6 10.5 3 0 5.9-3.6 6-10.1 0-6.4-1.9-10.9-5-10.9z" fill="#2B2B2B"/>
  <path d="m106.6 63.5-0.6 6.9-0.6 0.5v-7.9h-0.9l-0.5 7-2-5.5c-0.5 0.4-1 0.9-1.5 1.4l2.5 5v0.5l-3-3-0.9 3 3.9 0.6 0.5 0.9-4.4 0.5v1.6l3.5 0.5-2.6 4c0.5 0.9 0.5 1.5 1 2l3-5.5-1 7.4 1.4 0.6 0.6-8.1 1 8.1 1-0.6-1-7.5 3 5 1-2.5-3-3 2.5 0.6v-2l-2.5-0.5 3-2.1v-1.5l-2.9 2.1 1-5.5c-0.5-1.6-1-2.5-1.5-3z" fill="#bebfc2"/>
  <path d="m105 63-0.5 7 0.9 1.4 0.6-7.9-1-0.5zm2 1.9-1 6.5 2-4.5-0.4-1-0.6-1zm-6 1-0.5 1 2.5 5.1v-1.1l-2-5zm9 3.5-3 2.6v0.5l3-1.5v-1.6zm-10.9 2v1.1l3.9 0.4-3.9-1.5zm7.9 2 2.5 0.6v-0.6h-2.5zm-7.9 1.5 3.9 0.5-3.9-1.5v1zm6.9 0.5 1 5 0.6-1-1.6-4zm-2 0.6-1 4 0.6 1 0.4-5z" fill="#5d5f60"/>
  <ellipse cx="104.4" cy="73.4" rx="2" ry="4" fill="#cdcfd1"/>
  <circle cx="104.5" cy="73.4" r="1.5" fill="#7c7e80"/>
  <circle cx="104.4" cy="73.4" r="1" fill="#bdc0bf"/>
  <path class="cls-22" d="m259.9 37c0.1-3.9-0.5-7.1-2.9-9-2-1.5-5-3-7-4.5l-8-8c-4-4.1-5.4-6.5-17-8.1-9-1.4-29-3.4-42.5-2.4-14.9 1-21.5 4.9-26.5 8-3.4 2-10 8.5-8.6 9.1-6.4 1.4-8.9 2.9-9.4 3.9 0 2.5 1 2.5-3 4-6 2-21 9.9-21 12-1.4 0.1-3.9 3-4 6-0.1 4 0 9-2.6 7-0.4-0.1-1.9 5.9-1 8.9 1.7 3.5 10.5 7.1 6.6 9l-6 2.1c0 2.5 1.1 3.5 5.1 4.5 7.9 2.5 34.9 5 38.9 5.5 2 0.4 2.6 1.5 7 1.5 6 0 19.7-0.5 22.6-1 2.4-0.1 3.4-0.6 3.4-4.6 1-11.9 4.6-26 15-25.9 6.5-0.1 9 6.4 8.5 17l-0.9 6.4 2.8-0.9c8.6-2.5 18.6-5.5 32.6-9.1 2.9 0 2.6-12.5 5-17.5 2.4-5.4 7.5-7.5 10-5.4 1.5 1.9 3 9.4 2 13.4 1.5-2.4 1.8-5 2-6.9 0-6.1-0.5-11.6-1.1-15z"/>
  <path class="cls-23" d="m207 36 3 10v28l23-7.4 10.1-2.6 2.9-20 8-8 6 3 0.5 13-1.5 6.9c1-5.9-0.5-14.8-4-15.5-9-1.9-10.9 8-13 23.2l-3.5 1.4-30.4 9-1.7 1.4 1.1-5.4c0.9-11.5-1.6-18.1-6.5-20-6.5-1.6-16 1.9-18 19l-0.6 12-2-6 1.6-11 6.1-9 8.9-7 9-3-7-3-9 2-7 7-3 4-5 2.9-11 4.1-17.4 2.5-7.6-0.9 18-5.7 3-0.9 20-4 6-7-8-2 22-7z"/>
  <path class="cls-24" d="m176 54 13.1-7.5-1.1 0.5c0.1 2.9-3 6.4-7 10"/>
  <path class="cls-25" d="m169 10c5-2 8.6-3.6 15-4 7.6-0.4 25.5-0.6 38 1l-4 1-8.6 3.9c-10.4-1-32-1.5-39.4-1.5l-1-0.4z"/>
  <path class="cls-25" d="m119.5 43.4c3.5-2.5 17.1-9.5 19.5-10.4 0-0.9 0.6-1.5 1-1.6 14 1 35 1.6 54.6 3-10.6 2.6-28.6 9.6-38.6 15.6l-34-3.1c-1.5-0.5-1-2.5-2.5-3.5z"/>
  <path class="cls-25" d="m140 30.9c1-1 18-15 26-20.4 2 0 6 0.4 7.4 0-6 1.4-25.8 14-28.4 18.5l-5 1.9z"/>
  <path class="cls-25" d="m146.6 24-7.6 2v2.4"/>
  <path class="cls-25" d="m120.5 46-4.5 2-2-3 5.4-3"/>
  <path class="cls-25" d="m123 42 23-7 11-1-12 3-17 4.4-5 0.6z"/>
  <path d="m252.5 26-6.5 1-16 4" fill="none" stroke="#ff664d" stroke-width=".25"/>
  <path class="cls-25" d="m244.6 33.5 11.4-4.5 4 3-0.5 7c-1.5-3.1-3.5-4.1-4.5-4.1-3 0.1-6.6 1-10 6"/>
  <path class="cls-25" d="m252 36.9c-4 0-5 1.5-6 4.1 6-4 9-5.1 12 0-0.4-3-3-5-6-4.6"/>
  <path class="cls-25" d="m140 66.9c6 0 33.6-3.9 37-6-1 2.1-9.5 3.6-18.9 6.1l-10-0.1-8.1 0.1"/>
  <path class="cls-25" d="m158.1 69.9 12.9-4.4 8 1.9c0 1.5-4.5 0.6-6-0.5l-3.6-0.3-11.3 3.3z"/>
  <path class="cls-25" d="m150 73.4 7-1.4-5 3.9 5 3.5-5-0.4-5-4.5z"/>
  <path class="cls-22" d="m109 55.9c0 3.1 1 5 2 5.5l7 4.1 1.4 1.4c-4.4-1.9-9.4-4.9-10.4-6l-0.9-5h0.9z"/>
  <path class="cls-25" d="m150 84 18.1-2 14.3-0.1-2.9 3.1-23.5 1h-4z"/>
  <path class="cls-25" d="m106.6 75h2.4l4.4 0.5-4.4 1.5 7.6 2 20 3-19.6-2-8.9-2-1.1-1z"/>
  <path d="m206 38-16 4.4-12 3.5c4.4-2.9 19.5-8.9 24-9.9" fill="#fe5443"/>
  <path class="cls-5" d="m139 31.4c2.6-4 20.5-19 27-20.9 9-0.5 30.6 1 42.6 2-1.6 3.4-5 11.4-7.6 16-2 3.5-3.9 5-9 5.4-6 0.5-48-1.5-53-2"/>
  <path class="cls-2" d="m139 26.5 7.6-2.5-6.6 4.5c0-1.5-1-1.5-1-1.5"/>
  <path d="m138 31.4 33 1.6 13-0.5c-5-0.5-33-1.9-41-2.1 0-1.4 8-9 5.1-7l-9.6 7.1" fill="#1D1D1B"/>
  <path class="cls-5" d="m120.5 52 26.5 2 5-0.1c4-1.9 11.5-5.9 14.6-7.9-3.2 1-6.6 3-10.6 4l-34-3-1.5-1-2.5 2h-2c0 1.9 1.4 4 4.5 4z"/>
  <path class="cls-7" d="m152 55c9-3 23.5-6 34-8 0 1.9-5.5 10.9-9.4 12-4.6 0.9-13.6 2.4-16.6 1.9-2 0.1-7.4-4.5-8-5.9z"/>
  <path class="cls-18" d="m155 55.5 26-5.5-4 8-15 1.9-2.5 0.1-4.5-2.6"/>
  <path class="cls-7" d="m168.4 52.5-3.4 2.9 5 2.5 5-0.4 3-6"/>
  <path class="cls-18" d="m155 55.9 7.4-1.9-0.8 2-3.6 0.5"/>
  <path class="cls-2" d="m157 58 4.6-1 0.4-2.1 4.6 0.1-0.6 1.4 3 1.6-9 1-2-1.5 1-1.6"/>
  <path class="cls-6" d="m180 50 4-1-3 3.5-2-1"/>
  <path d="m114 43.5c-1 0.5 1.4 6.9 3 8.5l-2 4.9c-1.4 0.1-4.5-1-5-2.4-1-5.5 1-9.5 4-11z" fill="#fff"/>
  <path d="m114 43.9 3 8.1-1 1c-2.4 0-5.5-4-4.4-6.5 0.5-1.5 1.8-2.6 2.4-2.6z" fill="#edecec"/>
  <path class="cls-2" d="m111 51c0 3 1 3.9 4 4.9l-1 0.5c-0.6 0-3-0.5-3-2.4v-3z"/>
  <path d="m206 46.9 2-0.9c1.4 0.5 1 2 0 2.4-1 0-2 0-2-1.5" fill="#FFDC73"/>
  <path class="cls-7" d="m169.4 53 6.6-0.6-1.6 2.6c0-1.6-3.4-1.6-5-1-1.4 0-0.4-1 0-1z"/>
  <path class="cls-7" d="m169.4 53.5c-1.9 0.5-1.4 3.5 1.1 4l3.9-0.5c0 0.9-3.4 2-6 1-2.4-1-0.9-4.5 1-4.5z"/>
  <path class="cls-9" d="m160 54.5 0.5 1.5h-2.5l0.6 1-2.6-1.1 2.1-1 1.4 0.1"/>
  <path class="cls-9" d="m160.5 55 7-1-0.9 2-5.6-0.1"/>
  <path class="cls-9" d="m161.6 59 0.4-1.5 6.4-0.1-0.9 1.6"/>
  <path class="cls-1" d="m155 72.9c5.5-1.4 10.5-2.9 14-2.9 4-0.1 5 2.5 6.5 8.9-4.5 0.6-10.5 1.5-12.5 1-2 0-5.4-3.4-8-7z"/>
  <path class="cls-5" d="m147 74.5c2.4-0.1 6 3.5 8 5.4 0 1.5-8.4 1.1-12 1-11-1-26-1.9-29.6-4-0.4-1 2.1-4 3.6-4.9l30 2.5z"/>
  <path class="cls-1" d="m114 72c-1.4 2.5-3 4-5 2.9l-1-0.9c2.5 0 5.6-4 3-6.6l3 2.6"/>
  <path d="m111 68 1 1.9-1 2.1-2.4-0.6c1-1.4 1.9-1.4 2.4-3.4" fill="#0a0b0d"/>
  <ellipse transform="rotate(-85.3 134.1 77)" cx="134.1" cy="77" rx=".9" ry="21.3" fill="#232628"/>
  <path class="cls-5" d="m114 58v-1.6l2.6-4.4 29.4 2.9h5l-1.9 1.1-30.1-2-3-0.1-1.6 2.6 0.6 2.5"/>
  <path d="m116 56 14 1.5 20.5 0.5 2.5-0.5" fill="none" stroke="#151515" stroke-width=".25"/>
  <path d="m116 58 14 1.5 22.1 1 2.5-1.1" fill="none" stroke="#151515" stroke-width=".25"/>
  <path d="m116 59.5 14 2 20.5 0.5 4.5-1.6" fill="none" stroke="#151515" stroke-width=".25"/>
  <path class="cls-1" d="m116 60c0.6 0.9 2.6 3 4.5 3.4 3.5 1.1 22.9 2.6 25.5 2.1 4-0.6 9-3.5 11.6-4.6l-5.5 0.1-5.5 2-26.6-1.1-2-1"/>
  <path d="m111 35c0-2 8.4-17.1 14-21.6 5-4.4 11.6-4.5 20-4.4 6 0.5 8.1 0 12 5.9l-10.4 8-7 3.1-0.6 3c-2 1.6-13 6.9-27 7.4l-1-0.4" fill="#1C1E20"/>
  <path class="cls-17" d="m120 22c1.6-0.6 7.4-0.6 11 0 4 0.4 8 0.5 8 0.5l-2-10.4c-0.4-1.6-1-1.6-7-0.6-3.4 0.6-7 5-10 10.5z"/>
  <path class="cls-17" d="m141 11.1 4 10.4 10-6.1c-2-1.9-3-3.4-5-3.8-2-0.6-9-0.6-9-0.5z"/>
  <path class="cls-8" d="m124 19c-2-1.1-2 2.5-1 2 2 0 1-1.6 1-2"/>
  <path class="cls-9" d="m114 35c1.5-3 5-10 6-11.5l-2.6 0.9-3.4 6.6-0.9 4"/>
  <path class="cls-9" d="m136 11c1 2 2 9 2 11h-0.6l-1-10-1.4-0.6 1-0.4z"/>
  <ellipse cx="133" cy="59" rx="3.4" ry="4.5" fill="#232628"/>
  <path d="m132 55c-1.5 0-3 1.5-3 3.9 0 2 1 4.1 3 4.1 1.6 0 3-1.5 3-4 0-2-1-4-3-4z" fill="#eaeaea"/>
  <path class="cls-2" d="m130 57c0 1 4 5 4 5l1-2.1-4-4c-0.5 0.1-1 1.1-1 1.1z"/>
  <path class="cls-2" d="m129.6 58 3.4 4.5c0 0.5-1.4 0.5-1.4 0.5l-2.6-3.1 0.6-1.9z"/>
  <path d="m132 55.9 3 3c0-2-1-3.5-1.6-3.5 0 0.1-0.8 0.5-1.4 0.5z" fill="#202326"/>
  <path class="cls-5" d="m182.6 13-4.6 12.5 6.6-0.5 2.8-6.6 1.6-4.9z"/>
  <path class="cls-17" d="m185 17.4-3 0.6h-1l-1.5 1.4-0.5 5.6h4l1-1-1-0.5c-1-1.5 0-4.5 1-6.5z"/>
  <path class="cls-8" d="m138 9.5 4 14h-2l-3-13.6 1-0.4z"/>
  <path class="cls-9" d="m141 13 8 7.5-0.9 1.5h-3.1-2z"/>
  <path d="m148 29.4 3-2c2.1-2.9 13-10.4 15-11.5l12-3.5 1-0.4-1 0.4c-2 1.6-5 7.6-7 13.5-1.5-0.9-2-0.9-3.6-0.5l-7.4 1.5" fill="#465054"/>
  <path class="cls-9" d="m160 28.4-7.5 1.6 11.5 0.4 12 0.5c-2.4-0.9-5-1-6-2.9h-4"/>
  <path class="cls-17" d="m189 13h6.4c1.2 0 1.6 1 0.6 1.9l-0.6 8.1 1.2-1.6 1-3-0.6-3.4 2.1-1.5-9.1-0.5"/>
  <path class="cls-5" d="m199.1 8.9"/>
  <path class="cls-1" d="m188.4 16.4c-2.4 0-3.8-0.5-4.4 2.1-1 4.5 0 5 2 5.5 4 0.5 8.6 0 9-1 0.4-7-0.5-6.1-6.6-6.6z"/>
  <path class="cls-5" d="m203 30"/>
  <path d="m204 35c0.4-1 5-13.6 9.4-19.1 2.6-4 7.6-5.9 15-5.4 5.6 0.4 9.2 0.5 11 2 1.6 0.9 7.2 10.9 6.6 14.5-8 2-31.5 9-40.5 10-1.5 0.4-2.1 0-1.5-2z" fill="#1c1e20"/>
  <path class="cls-17" d="m211 23.5 4-6c1.6-3 7-4.9 8-4 1.5 1.5 2.4 11 2 11h-2l-1.4-5c-2.2-4-5.2-2.6-6.6-1-0.6 1 0 5 0 5l-4 0.5"/>
  <path class="cls-17" d="m227 13c0 0.5 3.6 9 4 11.5 2.1-0.6 4.6 0 5.6 0.5h2.4c0-1.1-2.4-11-4.4-11.5-2-0.9-7.6-0.9-7.6-0.5z"/>
  <path class="cls-8" d="m210 23.6c3 0 3.6 1.4 3.6 3.3h-2.6l-1-2.9"/>
  <path d="m148 29.5h3c-0.6-1.5-0.6-2.1 2.1-3.5 2.3-2.1 8.9-7.5 12.9-9.6l11-3.4 2-1v-1h-12c-2 1-14 9-19.6 15.4l-2.4 3" fill="#465054"/>
  书ᥣ Swiss grammar}
  <ellipse cx="169" cy="75" rx="3" ry="2.9" fill="#C9CBCC"/>
  <path d="m169 72.5c-1.6 0-3 1-3 2.5s1 2.5 3 2.5c1 0 2-1 2-2.5s-1-2.5-2-2.5z" fill="#b3b4b6"/>
  <ellipse cx="169" cy="75" rx="2" ry="1.9" fill="#818385"/>
  <ellipse cx="169" cy="75" rx="1.5" ry="1.5" fill="#cacbcd"/>
  <circle cx="168.9" cy="75" r="1.1" fill="#aeb0af"/>
  <path class="cls-5" d="m218 7c-3.5 0.5-5.4 1-8 5.1-3 4.9-6.5 11.8-9 16.4l9-16 2.5-3 3.9-2.1 4.6-0.5 1 0.1h-4z"/>
  <radialGradient id="SVGID_4_" cx="-1452" cy="2147" r="7.544" fx="-1455" gradientTransform="matrix(.9903 .1392 -.1699 1.205 1793 -2383)" gradientUnits="userSpaceOnUse">
    <stop stop-color="#0B0D0F" offset=".5992"/>
    <stop stop-color="#0A0B0D" offset=".7515"/>
  </radialGradient>
  <path d="m177 86c1.6 2.9 2.5 5 4.6 5.4 3.8 0.6 7 2 10 1.6 2.9 0 5.4 0 7.4-3.6l-6.5-5.4-12.5-2" fill="url(#SVGID_4_)"/>
  <path d="m194 59c-4.9 1.5-9 9.4-10 21 1 6.5 5.1 11.9 9.4 11.9 5 0 11.6-2.5 12.5-16 0.7-11.9-2.5-18.9-11.9-16.9z" fill="#16181a"/>
  <path d="m196.6 63.4c-3.6 0.6-7 6.5-7 13 0 6.6 2.9 11.6 7 11.5 2.4 0 7-3 7.4-11.4 0.5-9-3.5-13.5-7.4-13.1z" fill="#bdbec1"/>
  <path d="m197 64c-3 0-7.4 5-7 12.9 0 6.5 3 11 7 10.6 2 0 6-3 6.6-11.1 0.4-8-3.6-12.4-6.6-12.4z" fill="#2B2C2D"/>
  <path d="m197.5 64-0.9 10.4-3.2-9c-1 0.5-1 1.5-1.4 2l3 6.6-3.6-5-0.9 4.4 4.5 0.6v1h-5v1.5l4 0.4-3 4 1 2.5 3.4-5.4-0.8 7 1.4 1 1-8.5 0.6 8.5 1.4-0.6-1-8 2.4 7 1.6-2.4-3-6.1 4 1.1v-2l-3.9-1 3.9-5-1-3.1-3 5.5 0.6-6.4-2.1-1z" fill="#babbbe"/>
  <path d="m197 64-0.4 10 1.4-2 1-7.1-2-0.9zm3 1.5-2 7.5 4-6.1-2-1.4zm-8 2.5-0.6 1 3.2 5h0.4l-3-6zm11 1-4 5 1 0.5 3-3.5v-2zm-12 4v1h4l-4-1zm9 2 3 1v-1h-3zm-9.5 1 4.1 0.5-3.6 0.5-0.5-1zm7.5-0.1 3 6.1 1-2-3-4-1-0.1zm-3 1.1-2 4 1 1 1-5z" fill="#5c5e60"/>
  <ellipse cx="196" cy="75.5" rx="2.5" ry="4.4" fill="#cdcecf"/>
  <circle cx="196.6" cy="75.5" r="1.5" fill="#7d7e81"/>
  <circle cx="196.6" cy="75.5" r="1" fill="#cbcacb"/>
  <path class="cls-22" d="m211.4 68.9 22.6-8.9 4-2c1-0.6 6-1.1 5 0.5l-10 4.5-20 6.9c-3 1.1-3.6 1.1-1.6-1z"/>
  <path class="cls-26" d="m206.6 36.4 2.8 8.1c1.6 4.5 0.6 29.5 0.6 29.5"/>
  <path class="cls-26" d="m231 31c4 6 1.5 26 2 35.5"/>
  <path class="cls-26" d="m199.1 33.5"/>
  <path class="cls-26" d="m203.6 36.5"/>
  <path class="cls-26" d="m195.4 33.5c0.6 1 0.6 5.5 0 7.4"/>
  <path class="cls-27" d="m210.5 37 2.5 6 2-0.5-0.5-2.5-2-4"/>
  <path d="m224 12.5 4 17.4 4-1-4.5-16.4z" fill="#202326"/>
  <path class="cls-26" d="m174 54.9"/>
  <line x1="182.4" x2="189.1" y1="55.9" y2="58.4" fill="none" stroke="#DE1600" stroke-width=".25"/>
  <path class="cls-15" d="m156 50c6-4.5 25-13 32.6-14.5l-11.6 3.5-12 5"/>
  <path class="cls-7" d="m157.6 50c4.4-3.6 24.8-12.6 35.8-14.5-1.4 1.4-17.4 6-27.4 12.4"/>
  <path class="cls-25" d="m167.5 46c3.5-3 14.5-7 24.5-10.5-3.4 1.4-19.4 6.5-24.5 10.5z"/>
  <path d="m171 46c7-3.5 18.4-9 24-10" fill="none" stroke="#fd513f" stroke-miterlimit="10" stroke-width=".25"/>
  <path class="cls-26" d="m209 73.9 34-9.9"/>
  <path class="cls-27" d="m205 37 10-2v2l-1 1-2 5s-2.6-5-3-6"/>
  <path class="cls-25" d="m215 43 15-4-0.6-3-11.4 1h-5l2 3"/>
  <path class="cls-26" d="m214.5 42.5 15.5-3.5"/>
  <path d="m206.6 47h1.4c0.4 0.4-1 1-1 1l-1-0.1 0.6-0.9z" fill="#C9CBCC"/>
  <linearGradient id="SVGID_6_" x1="227.2" x2="261.5" y1="76.24" y2="76.24" gradientUnits="userSpaceOnUse">
    <stop stop-color="#151224" stop-opacity="0" offset="0"/>
    <stop stop-color="#151224" stop-opacity=".7" offset="1"/>
  </linearGradient>
  <path d="m227.2 70 10.8-1.6c4 6.6 8.6 7.6 13 6.6 4-0.6 11-3.6 11-5.1s-4-1.9-7-2.9l-27.8 3z" fill="url(#SVGID_6_)"/>
  <path d="m241 67.5-3 1.5c2.5 5 4.6 6.4 9.6 6.4 2.4 0 5.4-1.4 6.9-5.4l-4.5-1.6-5-2.9" fill="#0A0B0D"/>
  <path d="m251.4 47.5c-4.4 0-7.3 5-7.8 12.5s3.4 14.5 6.4 14.5c4 0.5 6.6-6 6.6-13.5 0-7-1.6-13.5-5.2-13.5z" fill="#16181A"/>
  <path d="m252.5 50.5c-3.1-1-4.9 2.5-5.5 9.4-0.4 6 2 11.1 4.4 11.1 2.2 0 4.6-3 5.2-9.6 0-6.4-1.6-10.4-4.1-10.9z" fill="#B8BABC"/>
  <path d="m252.5 51c-2.5-0.5-4.9 3-5 8.9-0.5 6 1.5 10 3.9 10.5 2.2 0.5 4-3.5 4.6-8.5 0.6-5.9-1.4-10.4-3.5-10.9z" fill="#2C2E30"/>
  <path d="m252.6 51.4-0.6 8.6-1-8.6-1 0.6v7.9l-1.6-5.5-0.8 2.6 2.4 3.5v1.4l-2.4-2.9v1.9l2.4 0.5-1 0.6-1.4 2 0.4 1.5 2-2.5-1 6 1 1 0.5-6 1.5 6.4 1-0.5-1.4-5.9 1.8 4 1.2-2.6-2-3.4 2.4 1v-2l-2.4-0.5 2.4-4.5-0.4-2-2.6 4.9 1-6.9" fill="#BABBBE"/>
  <path d="m251 51.4 0.6 8.5 1-0.9 0.4-7-2-0.6zm2.4 1-1.4 7.5 3-4.5-1.6-3zm-5.4 2.6v1.4l2 3.5v-1.4l-2-3.5zm7 1.4-2.4 4 2.8 1-0.4-5zm-7.4 3.6v0.9l2.4 0.5-2.4-1.4zm5.4 2 2 1v-1h-2zm-5 1 2 1-2 1.5v-2.5zm4-1 1.4 4 0.6-1.5-2-2.5zm-0.6 2 0.6 3.5v1.5l-1-4.6" fill="#5B5D5F"/>
  <ellipse cx="251.4" cy="61" rx="1.5" ry="3.9" fill="#CCCDCE"/>
  <circle cx="251.6" cy="61.4" r="1.5" fill="#7C7E80"/>
  <circle cx="251.4" cy="60.9" r="1" fill="#CACACC"/>
  <linearGradient id="SVGID_8_" x1="117.8" x2="131" y1="30" y2="30" gradientUnits="userSpaceOnUse">
    <stop stop-color="#EAB916" offset="0"/>
    <stop stop-color="#FFDD15" offset=".5045"/>
    <stop stop-color="#EAB916" offset="1"/>
  </linearGradient>
  <path d="m120.1 26.5c-3.1 1-3.1 4.5-1.1 5.5 5 0 12 0.5 12-2 0-4-6-4.5-10.9-3.5z" fill="url(#SVGID_8_)"/>
  <path d="m130.5 29.5-12.4-0.5c0.4-3 2.9-3 4.4-3 5.1 0 8 1 8 3.5z" fill="#FED013"/>
  <path class="cls-27" d="m242.5 32c-1.5 0-1.5 0.4-2 1v3.4l2 0.6 2.1-1.5 0.9-1.1-0.9-1.9-2.1-0.5z"/>
  <path class="cls-22" d="m241 32 4.5 1-0.4 1.9-4.1 0.1c-2 0-1-2.6 0-3z"/>
  <path class="cls-24" d="m256 30 2 3 1 1-0.5-3.1-0.5-1-2 0.1z"/>
  <path class="cls-7" d="m206.6 47.4c0-1 2.4-1 1.5-0.4-0.5 0-1.1 0.4-1.5 0.4z"/>
  <path class="cls-22" d="m212 26c-1.5 0-3 7-0.4 8l9.8-1c1.6-0.5 1.6-1 2.2-3.5-0.5-2.5-7.6-4.1-11.6-3.5z"/>
  <path d="m210 32.4 1-5.4c0-0.5 1-1.1 3-0.5 3 0 8 1.4 8 2.5-1 1-11 2.4-10 3" fill="#FD543F"/>
  <path class="cls-25" d="m213.6 32c1.4-1 5.8-1.5 7.4-1.5 2 0 1 1 1 1.5l-8.4 1"/>
  <path class="cls-24" d="m227.5 36.9-1.5 1.6v2.5l2 1.5 2-0.5 1-1.1v-2.9l-2-1.6z"/>
  <path class="cls-22" d="m227.5 37 3.5 2h-5c0-1 0.6-2.1 1.5-2.1z"/>
  <path class="cls-28" d="m259 7.7c-6-0.7-9-2.7-10-7.7-0.5 6-3 8.6-9 9.4 6 0.6 8 3.1 9 8.6 1-6 2.6-9.6 10-10.3z" fill="#FFEF7C"/>
  <path d="m255.5 7.7c-3.5-0.7-5.5-2.2-6.5-5.7-1 3.6-3 5-5.6 6 2.6 0 5 2 5.6 5.5 1-3.5 3-5.1 6.5-5.8z" fill="#FEE252"/>
  <path class="cls-28" d="m273 21.4c-4.5-0.4-7-2.9-8-9.4 0 5.5-2.6 8.5-7.6 9.4 4.6 0.1 7.2 2.6 7.6 8.6 0.5-5.6 2.6-8 8-8.6z" fill="#FFEF7C"/>
  <path d="m269.5 21.4c-2.5-1-3.5-2.4-4.5-6-0.6 3.2-2 5-4 6 2 0.6 3.5 2.1 4 3.6 1-2 2-3.5 4.5-3.6z" fill="#FEE252"/>
  <path class="cls-3" d="m77 9.9"/>
  <path class="cls-26" d="m103.5 33 1 4-0.5 3.5"/>
  <polyline class="cls-26" points="117 36 117.4 40 118 40 117 36"/>
  <path class="cls-26" d="m93.6 42.4v3.1"/>
  <polygon class="cls-31" points="31 63 31 70.5 53 72.9 53.5 65.4"/>
  <path class="cls-2" d="m104.6 59"/>
  <path class="cls-26" d="m90.5 54.5 4.9 4"/>
  <path class="cls-7" d="m169 73c-1 0-1.5 1-1.5 2s0.5 1.9 1.5 1.9 1.6-0.9 1.6-1.9-0.6-2-1.6-2z"/>
  <path d="m63 53" fill="#feefe0"/>
  <path d="m81.4 70" fill="#cccbcb"/>
  <path d="m78.1 69.4c-1.4 0.1-5.8 0.6-6.5 1.6 0 1 2.4 5.5 5.9 5 3.1 0 2.5-1.1 2.5-2 0-2 0.6-4.6-1.9-4.6z" fill="#424346"/>
  <path d="m54.1 72.9 4.9 0.5 2-1.5c-1.5 0.6-5 0-6 0l-0.9 1z" fill="#202326" opacity=".5"/>
  <path d="m78 70c-1 0-2 1.4-2 2.5 0 1.4 1 2.5 2 2.5 1.4 0 2-1.1 2-2.5 0-1.1-0.6-2.5-2-2.5z" fill="#a0a1a3" stroke="#000" stroke-width=".15"/>
  <path class="cls-7" d="m78 70.5c-1 0-1.9 1-1.9 1.9 0 1.1 0.9 2 1.9 2 0.9 0 1.6-0.9 1.6-2 0-1-0.7-1.9-1.6-1.9z"/>
  <path d="m77.5 71-0.9 1.5 0.9 1.5 1.5-1.5-1.5-1.5" fill="none" stroke="#fff" stroke-width=".15"/>
  <path d="m76.6 72.5h2.4" fill="none" stroke="#fff" stroke-width=".15"/>
  <path class="cls-32" d="m109.5 68c-0.9-0.5-1.9 0.5-4 2.9l2.6-0.9c1.9-2 2.9-1.5 2.9-1l0.6-0.1-2.1-0.9z"/>
  <path class="cls-33" d="m111.6 69-1.1-1v0.5"/>
  <polygon class="cls-31" points="118 65.5 118 73.1 142.9 75.5 142.9 68"/>
</svg>